<svg width="384" height="28" viewBox="0 0 384 28" fill="none" xmlns="http://www.w3.org/2000/svg">
<path d="M0.480654 8.87359V0.233061H1.54872V4.04329H6.097V0.233061H7.16506V8.87359H6.097V5.05736H1.54872V8.87359H0.480654ZM10.6905 9.0536C10.2064 9.0536 9.80041 8.96559 9.47239 8.78958C9.14837 8.60957 8.90236 8.37356 8.73435 8.08154C8.57034 7.78952 8.48833 7.4695 8.48833 7.12148C8.48833 6.78146 8.55233 6.48744 8.68034 6.23943C8.81235 5.98741 8.99636 5.7794 9.23238 5.61539C9.46839 5.44738 9.75041 5.31537 10.0784 5.21937C10.3864 5.13536 10.7305 5.06336 11.1105 5.00335C11.4945 4.93935 11.8825 4.88134 12.2746 4.82934C12.6666 4.77734 13.0326 4.72734 13.3726 4.67933L12.9886 4.90135C13.0006 4.32531 12.8846 3.89928 12.6406 3.62327C12.4006 3.34725 11.9845 3.20924 11.3925 3.20924C11.0005 3.20924 10.6565 3.29925 10.3604 3.47926C10.0684 3.65527 9.86241 3.94329 9.74241 4.34331L8.72835 4.03729C8.88435 3.46926 9.18637 3.02323 9.6344 2.69921C10.0824 2.37519 10.6725 2.21318 11.4045 2.21318C11.9925 2.21318 12.4966 2.31919 12.9166 2.5312C13.3406 2.73921 13.6446 3.05523 13.8287 3.47926C13.9207 3.67927 13.9787 3.89728 14.0027 4.1333C14.0267 4.36531 14.0387 4.60933 14.0387 4.86534V8.87359H13.0906V7.31949L13.3126 7.4635C13.0686 7.98753 12.7266 8.38356 12.2866 8.65157C11.8505 8.91959 11.3185 9.0536 10.6905 9.0536ZM10.8525 8.15954C11.2365 8.15954 11.5685 8.09154 11.8485 7.95553C12.1326 7.81552 12.3606 7.63351 12.5326 7.4095C12.7046 7.18149 12.8166 6.93347 12.8686 6.66545C12.9286 6.46544 12.9606 6.24343 12.9646 5.99941C12.9726 5.7514 12.9766 5.56139 12.9766 5.42938L13.3486 5.59139C13.0006 5.63939 12.6586 5.68539 12.3226 5.7294C11.9865 5.7734 11.6685 5.8214 11.3685 5.87341C11.0685 5.92141 10.7985 5.97941 10.5585 6.04742C10.3824 6.10342 10.2164 6.17542 10.0604 6.26343C9.90842 6.35143 9.78441 6.46544 9.6884 6.60545C9.5964 6.74146 9.5504 6.91147 9.5504 7.11548C9.5504 7.29149 9.5944 7.4595 9.6824 7.61951C9.77441 7.77952 9.91442 7.90953 10.1024 8.00954C10.2944 8.10954 10.5445 8.15954 10.8525 8.15954ZM14.8787 8.87359L17.4949 5.63339L15.0047 2.39319H16.1928L18.5989 5.57339V2.39319H19.571V5.57339L21.9772 2.39319H23.1652L20.6751 5.63339L23.2912 8.87359H22.0492L19.571 5.69339V8.87359H18.5989V5.69339L16.1208 8.87359H14.8787ZM29.5521 2.39319V8.87359H28.52V4.0973L25.1238 8.87359H24.2417V2.39319H25.2738V7.10348L28.676 2.39319H29.5521ZM31.2265 8.87359V2.39319H32.1446L34.6047 7.4215L37.0649 2.39319H37.9829V8.87359H36.9509V4.61933L34.8868 8.87359H34.3227L32.2586 4.61933V8.87359H31.2265ZM41.5009 9.0536C41.0169 9.0536 40.6109 8.96559 40.2829 8.78958C39.9588 8.60957 39.7128 8.37356 39.5448 8.08154C39.3808 7.78952 39.2988 7.4695 39.2988 7.12148C39.2988 6.78146 39.3628 6.48744 39.4908 6.23943C39.6228 5.98741 39.8068 5.7794 40.0429 5.61539C40.2789 5.44738 40.5609 5.31537 40.8889 5.21937C41.1969 5.13536 41.5409 5.06336 41.921 5.00335C42.305 4.93935 42.693 4.88134 43.085 4.82934C43.4771 4.77734 43.8431 4.72734 44.1831 4.67933L43.7991 4.90135C43.8111 4.32531 43.6951 3.89928 43.4511 3.62327C43.211 3.34725 42.795 3.20924 42.203 3.20924C41.811 3.20924 41.4669 3.29925 41.1709 3.47926C40.8789 3.65527 40.6729 3.94329 40.5529 4.34331L39.5388 4.03729C39.6948 3.46926 39.9968 3.02323 40.4449 2.69921C40.8929 2.37519 41.4829 2.21318 42.215 2.21318C42.803 2.21318 43.307 2.31919 43.7271 2.5312C44.1511 2.73921 44.4551 3.05523 44.6391 3.47926C44.7311 3.67927 44.7891 3.89728 44.8131 4.1333C44.8371 4.36531 44.8491 4.60933 44.8491 4.86534V8.87359H43.9011V7.31949L44.1231 7.4635C43.8791 7.98753 43.5371 8.38356 43.097 8.65157C42.661 8.91959 42.129 9.0536 41.5009 9.0536ZM41.6629 8.15954C42.047 8.15954 42.379 8.09154 42.659 7.95553C42.943 7.81552 43.171 7.63351 43.3431 7.4095C43.5151 7.18149 43.6271 6.93347 43.6791 6.66545C43.7391 6.46544 43.7711 6.24343 43.7751 5.99941C43.7831 5.7514 43.7871 5.56139 43.7871 5.42938L44.1591 5.59139C43.8111 5.63939 43.4691 5.68539 43.133 5.7294C42.797 5.7734 42.479 5.8214 42.179 5.87341C41.879 5.92141 41.6089 5.97941 41.3689 6.04742C41.1929 6.10342 41.0269 6.17542 40.8709 6.26343C40.7189 6.35143 40.5949 6.46544 40.4989 6.60545C40.4069 6.74146 40.3609 6.91147 40.3609 7.11548C40.3609 7.29149 40.4049 7.4595 40.4929 7.61951C40.5849 7.77952 40.7249 7.90953 40.9129 8.00954C41.1049 8.10954 41.3549 8.15954 41.6629 8.15954ZM50.4115 8.87359V6.52745H49.0134C48.8494 6.52745 48.6674 6.52144 48.4674 6.50944C48.2714 6.49344 48.0873 6.47144 47.9153 6.44344C47.4473 6.35543 47.0513 6.14942 46.7273 5.8254C46.4072 5.50138 46.2472 5.05336 46.2472 4.48132C46.2472 3.92529 46.3972 3.47926 46.6973 3.14324C47.0013 2.80322 47.3753 2.5832 47.8193 2.4832C48.0193 2.4352 48.2213 2.40919 48.4254 2.40519C48.6334 2.39719 48.8094 2.39319 48.9534 2.39319H51.4795L51.4855 8.87359H50.4115ZM46.0492 8.87359L47.7713 6.23343H48.9234L47.2013 8.87359H46.0492ZM48.9354 5.64539H50.4115V3.27525H48.9354C48.8434 3.27525 48.7214 3.27925 48.5694 3.28725C48.4214 3.29525 48.2794 3.31925 48.1433 3.35925C48.0153 3.39525 47.8893 3.46126 47.7653 3.55726C47.6453 3.65327 47.5453 3.77728 47.4653 3.92929C47.3853 4.0813 47.3453 4.26131 47.3453 4.46932C47.3453 4.76934 47.4293 5.01335 47.5973 5.20136C47.7653 5.38538 47.9693 5.50938 48.2093 5.57339C48.3414 5.60539 48.4714 5.62539 48.5994 5.63339C48.7314 5.64139 48.8434 5.64539 48.9354 5.64539ZM59.9721 8.25555L57.884 5.62739L59.9721 3.00523L60.5842 3.48526L58.8741 5.62739L60.5842 7.77552L59.9721 8.25555ZM57.782 8.25555L55.6939 5.62739L57.782 3.00523L58.394 3.48526L56.6839 5.62739L58.394 7.77552L57.782 8.25555ZM65.7593 9.0536C64.8992 9.0536 64.1692 8.86359 63.5692 8.48356C62.9691 8.10354 62.5111 7.57551 62.1951 6.89947C61.8831 6.22343 61.727 5.44138 61.727 4.55332C61.727 3.66527 61.8831 2.88322 62.1951 2.20718C62.5111 1.53114 62.9691 1.00311 63.5692 0.623084C64.1692 0.243061 64.8992 0.0530499 65.7593 0.0530499C66.6233 0.0530499 67.3554 0.243061 67.9554 0.623084C68.5555 1.00311 69.0115 1.53114 69.3235 2.20718C69.6355 2.88322 69.7915 3.66527 69.7915 4.55332C69.7915 5.44138 69.6355 6.22343 69.3235 6.89947C69.0115 7.57551 68.5555 8.10354 67.9554 8.48356C67.3554 8.86359 66.6233 9.0536 65.7593 9.0536ZM65.7593 8.03354C66.4033 8.03754 66.9394 7.89353 67.3674 7.60151C67.7994 7.30549 68.1214 6.89547 68.3335 6.37144C68.5495 5.8474 68.6575 5.24137 68.6575 4.55332C68.6575 3.86128 68.5495 3.25525 68.3335 2.73521C68.1214 2.21518 67.7994 1.80916 67.3674 1.51714C66.9394 1.22512 66.4033 1.07711 65.7593 1.07311C65.1153 1.06911 64.5792 1.21312 64.1512 1.50514C63.7272 1.79716 63.4072 2.20518 63.1911 2.72921C62.9751 3.25325 62.8651 3.86128 62.8611 4.55332C62.8571 5.24137 62.9631 5.8454 63.1791 6.36544C63.3952 6.88547 63.7172 7.29349 64.1452 7.58951C64.5772 7.88153 65.1153 8.02954 65.7593 8.03354ZM72.7128 8.87359V3.36525H70.4566V2.39319H76.037V3.36525H73.7808V8.87359H72.7128ZM77.1668 8.87359V2.39319H82.4772V8.87359H81.4091V3.40725H78.2349V8.87359H77.1668ZM87.1338 9.0536C86.5258 9.0536 86.0138 8.90359 85.5977 8.60357C85.1817 8.29955 84.8657 7.88953 84.6497 7.3735C84.4377 6.85347 84.3316 6.27143 84.3316 5.62739C84.3316 4.97535 84.4377 4.39131 84.6497 3.87528C84.8657 3.35925 85.1817 2.95323 85.5977 2.65721C86.0178 2.36119 86.5318 2.21318 87.1398 2.21318C87.7399 2.21318 88.2559 2.36319 88.6879 2.66321C89.1239 2.95923 89.458 3.36525 89.69 3.88128C89.922 4.39732 90.038 4.97935 90.038 5.62739C90.038 6.27543 89.922 6.85747 89.69 7.3735C89.458 7.88953 89.1239 8.29955 88.6879 8.60357C88.2559 8.90359 87.7379 9.0536 87.1338 9.0536ZM84.1516 11.7538V2.39319H85.1057V7.16348H85.2257V11.7538H84.1516ZM87.0018 8.07554C87.4298 8.07554 87.7839 7.96753 88.0639 7.75152C88.3439 7.53551 88.5539 7.24349 88.6939 6.87547C88.8339 6.50344 88.9039 6.08742 88.9039 5.62739C88.9039 5.17136 88.8339 4.75934 88.6939 4.39131C88.5579 4.02329 88.3459 3.73127 88.0579 3.51526C87.7739 3.29925 87.4118 3.19124 86.9718 3.19124C86.5518 3.19124 86.2038 3.29525 85.9277 3.50326C85.6517 3.70727 85.4457 3.99329 85.3097 4.36131C85.1737 4.72534 85.1057 5.14736 85.1057 5.62739C85.1057 6.09942 85.1717 6.52144 85.3037 6.89347C85.4397 7.26149 85.6477 7.55151 85.9277 7.76352C86.2078 7.97153 86.5658 8.07554 87.0018 8.07554ZM93.1955 9.0536C92.7115 9.0536 92.3054 8.96559 91.9774 8.78958C91.6534 8.60957 91.4074 8.37356 91.2394 8.08154C91.0754 7.78952 90.9934 7.4695 90.9934 7.12148C90.9934 6.78146 91.0574 6.48744 91.1854 6.23943C91.3174 5.98741 91.5014 5.7794 91.7374 5.61539C91.9734 5.44738 92.2554 5.31537 92.5835 5.21937C92.8915 5.13536 93.2355 5.06336 93.6155 5.00335C93.9995 4.93935 94.3876 4.88134 94.7796 4.82934C95.1716 4.77734 95.5376 4.72734 95.8777 4.67933L95.4936 4.90135C95.5056 4.32531 95.3896 3.89928 95.1456 3.62327C94.9056 3.34725 94.4896 3.20924 93.8975 3.20924C93.5055 3.20924 93.1615 3.29925 92.8655 3.47926C92.5735 3.65527 92.3675 3.94329 92.2474 4.34331L91.2334 4.03729C91.3894 3.46926 91.6914 3.02323 92.1394 2.69921C92.5875 2.37519 93.1775 2.21318 93.9095 2.21318C94.4976 2.21318 95.0016 2.31919 95.4216 2.5312C95.8457 2.73921 96.1497 3.05523 96.3337 3.47926C96.4257 3.67927 96.4837 3.89728 96.5077 4.1333C96.5317 4.36531 96.5437 4.60933 96.5437 4.86534V8.87359H95.5956V7.31949L95.8177 7.4635C95.5736 7.98753 95.2316 8.38356 94.7916 8.65157C94.3556 8.91959 93.8235 9.0536 93.1955 9.0536ZM93.3575 8.15954C93.7415 8.15954 94.0736 8.09154 94.3536 7.95553C94.6376 7.81552 94.8656 7.63351 95.0376 7.4095C95.2096 7.18149 95.3216 6.93347 95.3736 6.66545C95.4336 6.46544 95.4656 6.24343 95.4696 5.99941C95.4776 5.7514 95.4816 5.56139 95.4816 5.42938L95.8537 5.59139C95.5056 5.63939 95.1636 5.68539 94.8276 5.7294C94.4916 5.7734 94.1736 5.8214 93.8735 5.87341C93.5735 5.92141 93.3035 5.97941 93.0635 6.04742C92.8875 6.10342 92.7215 6.17542 92.5655 6.26343C92.4135 6.35143 92.2894 6.46544 92.1934 6.60545C92.1014 6.74146 92.0554 6.91147 92.0554 7.11548C92.0554 7.29149 92.0994 7.4595 92.1874 7.61951C92.2794 7.77952 92.4195 7.90953 92.6075 8.00954C92.7995 8.10954 93.0495 8.15954 93.3575 8.15954ZM98.0978 8.87359V2.39319H100.858C101.022 2.39319 101.198 2.40319 101.386 2.42319C101.578 2.4392 101.752 2.4692 101.908 2.5132C102.256 2.60521 102.542 2.79522 102.766 3.08323C102.994 3.36725 103.108 3.72727 103.108 4.1633C103.108 4.40732 103.07 4.61933 102.994 4.79934C102.922 4.97935 102.818 5.13536 102.682 5.26737C102.622 5.32737 102.556 5.38138 102.484 5.42938C102.412 5.47738 102.34 5.51538 102.268 5.54339C102.408 5.56739 102.55 5.62139 102.694 5.7054C102.922 5.8294 103.1 6.00341 103.228 6.22743C103.36 6.45144 103.426 6.73746 103.426 7.08548C103.426 7.52551 103.32 7.88953 103.108 8.17755C102.896 8.46156 102.604 8.65758 102.232 8.76558C102.076 8.80958 101.904 8.83959 101.716 8.85559C101.528 8.86759 101.346 8.87359 101.17 8.87359H98.0978ZM99.1779 8.00354H101.11C101.194 8.00354 101.294 7.99553 101.41 7.97953C101.53 7.96353 101.636 7.94353 101.728 7.91953C101.936 7.85953 102.086 7.74752 102.178 7.58351C102.274 7.4195 102.322 7.24149 102.322 7.04948C102.322 6.79346 102.25 6.58545 102.106 6.42544C101.966 6.26543 101.78 6.16542 101.548 6.12542C101.464 6.10142 101.372 6.08742 101.272 6.08342C101.176 6.07942 101.09 6.07742 101.014 6.07742H99.1779V8.00354ZM99.1779 5.19536H100.786C100.898 5.19536 101.016 5.18936 101.14 5.17736C101.264 5.16136 101.372 5.13536 101.464 5.09936C101.648 5.03135 101.782 4.91935 101.866 4.76334C101.954 4.60333 101.998 4.42932 101.998 4.24131C101.998 4.03329 101.95 3.85128 101.854 3.69527C101.762 3.53526 101.62 3.42526 101.428 3.36525C101.3 3.31725 101.156 3.29125 100.996 3.28725C100.84 3.27925 100.74 3.27525 100.696 3.27525H99.1779V5.19536ZM109.936 2.39319V8.87359H108.904V4.0973L105.508 8.87359H104.626V2.39319H105.658V7.10348L109.06 2.39319H109.936ZM113.332 8.87359V3.36525H111.076V2.39319H116.657V3.36525H114.401V8.87359H113.332ZM117.793 8.87359L117.787 2.39319H118.861V4.73934H120.259C120.447 4.73934 120.639 4.74334 120.835 4.75134C121.031 4.75934 121.201 4.77734 121.345 4.80534C121.681 4.86934 121.975 4.98135 122.227 5.14136C122.479 5.30137 122.675 5.51938 122.815 5.7954C122.955 6.06742 123.025 6.40544 123.025 6.80946C123.025 7.3695 122.879 7.81352 122.587 8.14154C122.299 8.46556 121.921 8.68158 121.453 8.78958C121.293 8.82559 121.109 8.84959 120.901 8.86159C120.697 8.86959 120.503 8.87359 120.319 8.87359H117.793ZM118.861 7.99153H120.337C120.457 7.99153 120.591 7.98753 120.739 7.97953C120.887 7.97153 121.019 7.95153 121.135 7.91953C121.339 7.85953 121.521 7.74152 121.681 7.56551C121.845 7.3895 121.927 7.13748 121.927 6.80946C121.927 6.47744 121.847 6.22143 121.687 6.04142C121.531 5.8614 121.325 5.7434 121.069 5.68739C120.953 5.65939 120.831 5.64139 120.703 5.63339C120.575 5.62539 120.453 5.62139 120.337 5.62139H118.861V7.99153ZM124.896 8.25555L124.284 7.77552L125.994 5.62739L124.284 3.48526L124.896 3.00523L126.984 5.62739L124.896 8.25555ZM127.086 8.25555L126.474 7.77552L128.184 5.62739L126.474 3.48526L127.086 3.00523L129.174 5.62739L127.086 8.25555ZM130.857 10.2177L130.923 9.71964C131.091 9.73164 131.217 9.69964 131.301 9.62363C131.385 9.54763 131.439 9.44362 131.463 9.31162C131.487 9.17961 131.491 9.0336 131.475 8.87359H130.857V7.51751H132.033V9.0536C132.033 9.47363 131.929 9.78964 131.721 10.0017C131.517 10.2137 131.229 10.2857 130.857 10.2177ZM140.722 8.87359V6.52745H139.324C139.16 6.52745 138.978 6.52144 138.778 6.50944C138.582 6.49344 138.398 6.47144 138.226 6.44344C137.758 6.35543 137.361 6.14942 137.037 5.8254C136.717 5.50138 136.557 5.05336 136.557 4.48132C136.557 3.92529 136.707 3.47926 137.007 3.14324C137.311 2.80322 137.685 2.5832 138.13 2.4832C138.33 2.4352 138.532 2.40919 138.736 2.40519C138.944 2.39719 139.12 2.39319 139.264 2.39319H141.79L141.796 8.87359H140.722ZM136.359 8.87359L138.082 6.23343H139.234L137.511 8.87359H136.359ZM139.246 5.64539H140.722V3.27525H139.246C139.154 3.27525 139.032 3.27925 138.88 3.28725C138.732 3.29525 138.59 3.31925 138.454 3.35925C138.326 3.39525 138.2 3.46126 138.076 3.55726C137.956 3.65327 137.856 3.77728 137.776 3.92929C137.695 4.0813 137.655 4.26131 137.655 4.46932C137.655 4.76934 137.74 5.01335 137.908 5.20136C138.076 5.38538 138.28 5.50938 138.52 5.57339C138.652 5.60539 138.782 5.62539 138.91 5.63339C139.042 5.64139 139.154 5.64539 139.246 5.64539ZM148.614 9.0536C147.958 9.0536 147.4 8.90759 146.94 8.61557C146.484 8.31955 146.136 7.91353 145.896 7.3975C145.656 6.88147 145.532 6.29343 145.524 5.63339C145.532 4.95735 145.658 4.36331 145.902 3.85128C146.15 3.33525 146.504 2.93323 146.964 2.64521C147.424 2.35719 147.978 2.21318 148.626 2.21318C149.31 2.21318 149.898 2.38119 150.39 2.71721C150.886 3.05323 151.218 3.51326 151.386 4.0973L150.33 4.41532C150.194 4.03929 149.972 3.74728 149.664 3.53926C149.36 3.33125 149.01 3.22724 148.614 3.22724C148.17 3.22724 147.804 3.33125 147.516 3.53926C147.228 3.74327 147.014 4.02729 146.874 4.39131C146.734 4.75134 146.662 5.16536 146.658 5.63339C146.666 6.35343 146.832 6.93547 147.156 7.3795C147.484 7.81952 147.97 8.03954 148.614 8.03954C149.038 8.03954 149.39 7.94353 149.67 7.75152C149.95 7.55551 150.162 7.27349 150.306 6.90547L151.386 7.18749C151.162 7.79152 150.812 8.25355 150.336 8.57357C149.86 8.89359 149.286 9.0536 148.614 9.0536ZM155.195 9.0536C154.551 9.0536 153.995 8.90759 153.527 8.61557C153.063 8.32355 152.705 7.91953 152.453 7.4035C152.201 6.88747 152.075 6.29543 152.075 5.62739C152.075 4.94735 152.203 4.35131 152.459 3.83928C152.715 3.32725 153.077 2.92923 153.545 2.64521C154.013 2.35719 154.563 2.21318 155.195 2.21318C155.843 2.21318 156.401 2.35919 156.87 2.65121C157.338 2.93923 157.696 3.34125 157.944 3.85728C158.196 4.36931 158.322 4.95935 158.322 5.62739C158.322 6.30343 158.196 6.89947 157.944 7.4155C157.692 7.92753 157.332 8.32956 156.864 8.62157C156.395 8.90959 155.839 9.0536 155.195 9.0536ZM155.195 8.03954C155.867 8.03954 156.367 7.81552 156.696 7.3675C157.024 6.91947 157.188 6.33943 157.188 5.62739C157.188 4.89535 157.022 4.31331 156.69 3.88128C156.357 3.44526 155.859 3.22724 155.195 3.22724C154.743 3.22724 154.371 3.32925 154.079 3.53326C153.787 3.73727 153.569 4.01929 153.425 4.37931C153.281 4.73934 153.209 5.15536 153.209 5.62739C153.209 6.35543 153.377 6.93947 153.713 7.3795C154.049 7.81952 154.543 8.03954 155.195 8.03954ZM159.643 8.87359V2.39319H164.143V3.40725H160.711V8.87359H159.643ZM164.563 8.87359V7.95553C164.803 7.99954 164.985 7.99153 165.109 7.93153C165.237 7.86753 165.331 7.75752 165.391 7.60151C165.455 7.4415 165.507 7.24149 165.547 7.00147C165.615 6.62145 165.673 6.19743 165.721 5.7294C165.773 5.26137 165.819 4.74934 165.859 4.1933C165.903 3.63327 165.943 3.03323 165.979 2.39319H170.509V8.87359H169.441V3.40725H166.951C166.927 3.77528 166.897 4.1533 166.861 4.54132C166.829 4.92935 166.795 5.30737 166.759 5.67539C166.723 6.03942 166.683 6.37944 166.639 6.69546C166.599 7.00747 166.555 7.27749 166.507 7.5055C166.431 7.89753 166.325 8.21155 166.189 8.44756C166.053 8.67958 165.857 8.82959 165.601 8.89759C165.345 8.96959 164.999 8.96159 164.563 8.87359ZM174.036 9.0536C173.552 9.0536 173.146 8.96559 172.818 8.78958C172.494 8.60957 172.248 8.37356 172.08 8.08154C171.916 7.78952 171.834 7.4695 171.834 7.12148C171.834 6.78146 171.898 6.48744 172.026 6.23943C172.158 5.98741 172.342 5.7794 172.578 5.61539C172.814 5.44738 173.096 5.31537 173.424 5.21937C173.732 5.13536 174.076 5.06336 174.456 5.00335C174.84 4.93935 175.228 4.88134 175.62 4.82934C176.012 4.77734 176.379 4.72734 176.719 4.67933L176.335 4.90135C176.347 4.32531 176.231 3.89928 175.986 3.62327C175.746 3.34725 175.33 3.20924 174.738 3.20924C174.346 3.20924 174.002 3.29925 173.706 3.47926C173.414 3.65527 173.208 3.94329 173.088 4.34331L172.074 4.03729C172.23 3.46926 172.532 3.02323 172.98 2.69921C173.428 2.37519 174.018 2.21318 174.75 2.21318C175.338 2.21318 175.842 2.31919 176.263 2.5312C176.687 2.73921 176.991 3.05523 177.175 3.47926C177.267 3.67927 177.325 3.89728 177.349 4.1333C177.373 4.36531 177.385 4.60933 177.385 4.86534V8.87359H176.437V7.31949L176.659 7.4635C176.415 7.98753 176.072 8.38356 175.632 8.65157C175.196 8.91959 174.664 9.0536 174.036 9.0536ZM174.198 8.15954C174.582 8.15954 174.914 8.09154 175.194 7.95553C175.478 7.81552 175.706 7.63351 175.878 7.4095C176.05 7.18149 176.163 6.93347 176.215 6.66545C176.275 6.46544 176.307 6.24343 176.311 5.99941C176.319 5.7514 176.323 5.56139 176.323 5.42938L176.695 5.59139C176.347 5.63939 176.004 5.68539 175.668 5.7294C175.332 5.7734 175.014 5.8214 174.714 5.87341C174.414 5.92141 174.144 5.97941 173.904 6.04742C173.728 6.10342 173.562 6.17542 173.406 6.26343C173.254 6.35143 173.13 6.46544 173.034 6.60545C172.942 6.74146 172.896 6.91147 172.896 7.11548C172.896 7.29149 172.94 7.4595 173.028 7.61951C173.12 7.77952 173.26 7.90953 173.448 8.00954C173.64 8.10954 173.89 8.15954 174.198 8.15954ZM178.939 8.87359V2.39319H179.971V7.90153H182.203V2.39319H183.235V7.90153H185.461V2.39319H186.493V8.87359H178.939ZM190.01 9.0536C189.526 9.0536 189.12 8.96559 188.792 8.78958C188.468 8.60957 188.222 8.37356 188.054 8.08154C187.89 7.78952 187.808 7.4695 187.808 7.12148C187.808 6.78146 187.872 6.48744 188 6.23943C188.132 5.98741 188.316 5.7794 188.552 5.61539C188.788 5.44738 189.07 5.31537 189.398 5.21937C189.706 5.13536 190.05 5.06336 190.43 5.00335C190.814 4.93935 191.202 4.88134 191.594 4.82934C191.986 4.77734 192.352 4.72734 192.692 4.67933L192.308 4.90135C192.32 4.32531 192.204 3.89928 191.96 3.62327C191.72 3.34725 191.304 3.20924 190.712 3.20924C190.32 3.20924 189.976 3.29925 189.68 3.47926C189.388 3.65527 189.182 3.94329 189.062 4.34331L188.048 4.03729C188.204 3.46926 188.506 3.02323 188.954 2.69921C189.402 2.37519 189.992 2.21318 190.724 2.21318C191.312 2.21318 191.816 2.31919 192.236 2.5312C192.66 2.73921 192.964 3.05523 193.148 3.47926C193.24 3.67927 193.298 3.89728 193.322 4.1333C193.346 4.36531 193.358 4.60933 193.358 4.86534V8.87359H192.41V7.31949L192.632 7.4635C192.388 7.98753 192.046 8.38356 191.606 8.65157C191.17 8.91959 190.638 9.0536 190.01 9.0536ZM190.172 8.15954C190.556 8.15954 190.888 8.09154 191.168 7.95553C191.452 7.81552 191.68 7.63351 191.852 7.4095C192.024 7.18149 192.136 6.93347 192.188 6.66545C192.248 6.46544 192.28 6.24343 192.284 5.99941C192.292 5.7514 192.296 5.56139 192.296 5.42938L192.668 5.59139C192.32 5.63939 191.978 5.68539 191.642 5.7294C191.306 5.7734 190.988 5.8214 190.688 5.87341C190.388 5.92141 190.118 5.97941 189.878 6.04742C189.702 6.10342 189.536 6.17542 189.38 6.26343C189.228 6.35143 189.104 6.46544 189.008 6.60545C188.916 6.74146 188.87 6.91147 188.87 7.11548C188.87 7.29149 188.914 7.4595 189.002 7.61951C189.094 7.77952 189.234 7.90953 189.422 8.00954C189.614 8.10954 189.864 8.15954 190.172 8.15954ZM200.205 9.0536C199.653 9.0536 199.165 8.93559 198.741 8.69958C198.321 8.46356 197.982 8.12954 197.726 7.69752C197.47 7.26549 197.31 6.75546 197.246 6.16742H195.98V8.87359H194.912V2.39319H195.98V5.09936H197.24C197.304 4.49932 197.466 3.98329 197.726 3.55126C197.986 3.11924 198.329 2.78922 198.753 2.5612C199.177 2.32919 199.665 2.21318 200.217 2.21318C200.861 2.21318 201.415 2.35919 201.879 2.65121C202.347 2.94323 202.705 3.34525 202.953 3.85728C203.205 4.36931 203.331 4.95735 203.331 5.62139C203.331 6.29743 203.203 6.89347 202.947 7.4095C202.695 7.92553 202.335 8.32956 201.867 8.62157C201.403 8.90959 200.849 9.0536 200.205 9.0536ZM200.187 8.03954C200.867 8.03954 201.371 7.81752 201.699 7.3735C202.031 6.92547 202.197 6.34343 202.197 5.62739C202.197 4.89135 202.029 4.30731 201.693 3.87528C201.361 3.44326 200.861 3.22724 200.193 3.22724C199.549 3.22724 199.059 3.44126 198.723 3.86928C198.387 4.29731 198.219 4.88134 198.219 5.62139C198.219 6.35343 198.385 6.93947 198.717 7.3795C199.053 7.81952 199.543 8.03954 200.187 8.03954ZM207.376 9.0536C206.72 9.0536 206.162 8.90759 205.702 8.61557C205.245 8.31955 204.897 7.91353 204.657 7.3975C204.417 6.88147 204.293 6.29343 204.285 5.63339C204.293 4.95735 204.419 4.36331 204.663 3.85128C204.911 3.33525 205.265 2.93323 205.726 2.64521C206.186 2.35719 206.74 2.21318 207.388 2.21318C208.072 2.21318 208.66 2.38119 209.152 2.71721C209.648 3.05323 209.98 3.51326 210.148 4.0973L209.092 4.41532C208.956 4.03929 208.734 3.74728 208.426 3.53926C208.122 3.33125 207.772 3.22724 207.376 3.22724C206.932 3.22724 206.566 3.33125 206.278 3.53926C205.99 3.74327 205.776 4.02729 205.636 4.39131C205.496 4.75134 205.424 5.16536 205.42 5.63339C205.428 6.35343 205.594 6.93547 205.918 7.3795C206.246 7.81952 206.732 8.03954 207.376 8.03954C207.8 8.03954 208.152 7.94353 208.432 7.75152C208.712 7.55551 208.924 7.27349 209.068 6.90547L210.148 7.18749C209.924 7.79152 209.574 8.25355 209.098 8.57357C208.622 8.89359 208.048 9.0536 207.376 9.0536ZM211.372 8.87359L211.366 2.39319H212.44V4.73934H213.839C214.027 4.73934 214.219 4.74334 214.415 4.75134C214.611 4.75934 214.781 4.77734 214.925 4.80534C215.261 4.86934 215.555 4.98135 215.807 5.14136C216.059 5.30137 216.255 5.51938 216.395 5.7954C216.535 6.06742 216.605 6.40544 216.605 6.80946C216.605 7.3695 216.459 7.81352 216.167 8.14154C215.879 8.46556 215.501 8.68158 215.033 8.78958C214.873 8.82559 214.689 8.84959 214.481 8.86159C214.277 8.86959 214.083 8.87359 213.899 8.87359H211.372ZM212.44 7.99153H213.917C214.037 7.99153 214.171 7.98753 214.319 7.97953C214.467 7.97153 214.599 7.95153 214.715 7.91953C214.919 7.85953 215.101 7.74152 215.261 7.56551C215.425 7.3895 215.507 7.13748 215.507 6.80946C215.507 6.47744 215.427 6.22143 215.267 6.04142C215.111 5.8614 214.905 5.7434 214.649 5.68739C214.533 5.65939 214.411 5.64139 214.283 5.63339C214.155 5.62539 214.033 5.62139 213.917 5.62139H212.44V7.99153ZM223.056 9.0536C222.4 9.0536 221.842 8.90759 221.382 8.61557C220.926 8.31955 220.578 7.91353 220.338 7.3975C220.098 6.88147 219.974 6.29343 219.966 5.63339C219.974 4.95735 220.1 4.36331 220.344 3.85128C220.592 3.33525 220.946 2.93323 221.406 2.64521C221.866 2.35719 222.42 2.21318 223.068 2.21318C223.752 2.21318 224.34 2.38119 224.832 2.71721C225.328 3.05323 225.66 3.51326 225.828 4.0973L224.772 4.41532C224.636 4.03929 224.414 3.74728 224.106 3.53926C223.802 3.33125 223.452 3.22724 223.056 3.22724C222.612 3.22724 222.246 3.33125 221.958 3.53926C221.67 3.74327 221.456 4.02729 221.316 4.39131C221.176 4.75134 221.104 5.16536 221.1 5.63339C221.108 6.35343 221.274 6.93547 221.598 7.3795C221.926 7.81952 222.412 8.03954 223.056 8.03954C223.48 8.03954 223.832 7.94353 224.112 7.75152C224.392 7.55551 224.604 7.27349 224.748 6.90547L225.828 7.18749C225.604 7.79152 225.254 8.25355 224.778 8.57357C224.302 8.89359 223.728 9.0536 223.056 9.0536ZM232.216 9.0536C231.572 9.0536 231.016 8.90759 230.548 8.61557C230.084 8.32355 229.726 7.91953 229.474 7.4035C229.222 6.88747 229.096 6.29543 229.096 5.62739C229.096 4.94735 229.224 4.35131 229.48 3.83928C229.736 3.32725 230.098 2.92923 230.566 2.64521C231.034 2.35719 231.584 2.21318 232.216 2.21318C232.864 2.21318 233.422 2.35919 233.89 2.65121C234.358 2.93923 234.716 3.34125 234.964 3.85728C235.216 4.36931 235.342 4.95935 235.342 5.62739C235.342 6.30343 235.216 6.89947 234.964 7.4155C234.712 7.92753 234.352 8.32956 233.884 8.62157C233.416 8.90959 232.86 9.0536 232.216 9.0536ZM232.216 8.03954C232.888 8.03954 233.388 7.81552 233.716 7.3675C234.044 6.91947 234.208 6.33943 234.208 5.62739C234.208 4.89535 234.042 4.31331 233.71 3.88128C233.378 3.44526 232.88 3.22724 232.216 3.22724C231.764 3.22724 231.392 3.32925 231.1 3.53326C230.808 3.73727 230.59 4.01929 230.446 4.37931C230.302 4.73934 230.23 5.15536 230.23 5.62739C230.23 6.35543 230.398 6.93947 230.734 7.3795C231.07 7.81952 231.564 8.03954 232.216 8.03954ZM239.297 9.0596C238.685 9.0556 238.163 8.92359 237.731 8.66358C237.299 8.39956 236.963 8.01354 236.723 7.5055C236.483 6.99747 236.349 6.37544 236.321 5.63939C236.305 5.29937 236.309 4.92535 236.333 4.51732C236.361 4.1093 236.405 3.71727 236.465 3.34125C236.529 2.96523 236.609 2.65521 236.705 2.41119C236.813 2.11918 236.965 1.84916 237.161 1.60114C237.361 1.34913 237.585 1.14112 237.833 0.977106C238.085 0.805095 238.367 0.671087 238.679 0.575082C238.991 0.479076 239.317 0.405071 239.657 0.353068C240.001 0.297065 240.345 0.249062 240.689 0.209059C241.033 0.165057 241.361 0.113054 241.673 0.0530499L241.781 1.01311C241.561 1.06111 241.301 1.10311 241.001 1.13912C240.701 1.17112 240.389 1.20912 240.065 1.25312C239.745 1.29713 239.437 1.35913 239.141 1.43913C238.849 1.51514 238.597 1.62115 238.385 1.75715C238.073 1.94517 237.833 2.22718 237.665 2.60321C237.501 2.97523 237.401 3.39325 237.365 3.85728C237.613 3.47326 237.935 3.19124 238.331 3.01123C238.727 2.83122 239.149 2.74121 239.597 2.74121C240.177 2.74121 240.677 2.87722 241.097 3.14924C241.517 3.41726 241.839 3.78728 242.063 4.25931C242.291 4.73134 242.405 5.26937 242.405 5.87341C242.405 6.51344 242.277 7.07348 242.021 7.55351C241.765 8.03354 241.403 8.40556 240.935 8.66958C240.471 8.93359 239.925 9.0636 239.297 9.0596ZM239.363 8.04554C239.991 8.04554 240.467 7.85153 240.791 7.4635C241.115 7.07148 241.277 6.55145 241.277 5.90341C241.277 5.23937 241.109 4.71733 240.773 4.33731C240.437 3.95329 239.965 3.76128 239.357 3.76128C238.741 3.76128 238.269 3.95329 237.941 4.33731C237.617 4.71733 237.455 5.23937 237.455 5.90341C237.455 6.57145 237.619 7.09548 237.947 7.4755C238.275 7.85553 238.747 8.04554 239.363 8.04554ZM246.706 9.0536C246.098 9.0536 245.586 8.90359 245.17 8.60357C244.754 8.29955 244.438 7.88953 244.222 7.3735C244.01 6.85347 243.904 6.27143 243.904 5.62739C243.904 4.97535 244.01 4.39131 244.222 3.87528C244.438 3.35925 244.754 2.95323 245.17 2.65721C245.59 2.36119 246.104 2.21318 246.712 2.21318C247.312 2.21318 247.828 2.36319 248.26 2.66321C248.696 2.95923 249.03 3.36525 249.262 3.88128C249.494 4.39732 249.61 4.97935 249.61 5.62739C249.61 6.27543 249.494 6.85747 249.262 7.3735C249.03 7.88953 248.696 8.29955 248.26 8.60357C247.828 8.90359 247.31 9.0536 246.706 9.0536ZM243.724 11.7538V2.39319H244.678V7.16348H244.798V11.7538H243.724ZM246.574 8.07554C247.002 8.07554 247.356 7.96753 247.636 7.75152C247.916 7.53551 248.126 7.24349 248.266 6.87547C248.406 6.50344 248.476 6.08742 248.476 5.62739C248.476 5.17136 248.406 4.75934 248.266 4.39131C248.13 4.02329 247.918 3.73127 247.63 3.51526C247.346 3.29925 246.984 3.19124 246.544 3.19124C246.124 3.19124 245.776 3.29525 245.5 3.50326C245.224 3.70727 245.018 3.99329 244.882 4.36131C244.746 4.72534 244.678 5.14736 244.678 5.62739C244.678 6.09942 244.744 6.52144 244.876 6.89347C245.012 7.26149 245.22 7.55151 245.5 7.76352C245.78 7.97153 246.138 8.07554 246.574 8.07554ZM252.768 9.0536C252.284 9.0536 251.878 8.96559 251.55 8.78958C251.226 8.60957 250.98 8.37356 250.812 8.08154C250.648 7.78952 250.566 7.4695 250.566 7.12148C250.566 6.78146 250.63 6.48744 250.758 6.23943C250.89 5.98741 251.074 5.7794 251.31 5.61539C251.546 5.44738 251.828 5.31537 252.156 5.21937C252.464 5.13536 252.808 5.06336 253.188 5.00335C253.572 4.93935 253.96 4.88134 254.352 4.82934C254.744 4.77734 255.11 4.72734 255.45 4.67933L255.066 4.90135C255.078 4.32531 254.962 3.89928 254.718 3.62327C254.478 3.34725 254.062 3.20924 253.47 3.20924C253.078 3.20924 252.734 3.29925 252.438 3.47926C252.146 3.65527 251.94 3.94329 251.82 4.34331L250.806 4.03729C250.962 3.46926 251.264 3.02323 251.712 2.69921C252.16 2.37519 252.75 2.21318 253.482 2.21318C254.07 2.21318 254.574 2.31919 254.994 2.5312C255.418 2.73921 255.722 3.05523 255.906 3.47926C255.998 3.67927 256.056 3.89728 256.08 4.1333C256.104 4.36531 256.116 4.60933 256.116 4.86534V8.87359H255.168V7.31949L255.39 7.4635C255.146 7.98753 254.804 8.38356 254.364 8.65157C253.928 8.91959 253.396 9.0536 252.768 9.0536ZM252.93 8.15954C253.314 8.15954 253.646 8.09154 253.926 7.95553C254.21 7.81552 254.438 7.63351 254.61 7.4095C254.782 7.18149 254.894 6.93347 254.946 6.66545C255.006 6.46544 255.038 6.24343 255.042 5.99941C255.05 5.7514 255.054 5.56139 255.054 5.42938L255.426 5.59139C255.078 5.63939 254.736 5.68539 254.4 5.7294C254.064 5.7734 253.746 5.8214 253.446 5.87341C253.146 5.92141 252.876 5.97941 252.636 6.04742C252.46 6.10342 252.294 6.17542 252.138 6.26343C251.986 6.35143 251.862 6.46544 251.766 6.60545C251.674 6.74146 251.628 6.91147 251.628 7.11548C251.628 7.29149 251.672 7.4595 251.76 7.61951C251.852 7.77952 251.992 7.90953 252.18 8.00954C252.372 8.10954 252.622 8.15954 252.93 8.15954ZM260.31 9.0596C259.698 9.0556 259.176 8.92359 258.744 8.66358C258.312 8.39956 257.976 8.01354 257.736 7.5055C257.496 6.99747 257.362 6.37544 257.334 5.63939C257.318 5.29937 257.322 4.92535 257.346 4.51732C257.374 4.1093 257.418 3.71727 257.478 3.34125C257.542 2.96523 257.622 2.65521 257.718 2.41119C257.826 2.11918 257.978 1.84916 258.174 1.60114C258.374 1.34913 258.598 1.14112 258.846 0.977106C259.098 0.805095 259.38 0.671087 259.692 0.575082C260.004 0.479076 260.33 0.405071 260.67 0.353068C261.014 0.297065 261.358 0.249062 261.702 0.209059C262.046 0.165057 262.374 0.113054 262.686 0.0530499L262.794 1.01311C262.574 1.06111 262.314 1.10311 262.014 1.13912C261.714 1.17112 261.402 1.20912 261.078 1.25312C260.758 1.29713 260.45 1.35913 260.154 1.43913C259.862 1.51514 259.61 1.62115 259.398 1.75715C259.086 1.94517 258.846 2.22718 258.678 2.60321C258.514 2.97523 258.414 3.39325 258.378 3.85728C258.626 3.47326 258.948 3.19124 259.344 3.01123C259.74 2.83122 260.162 2.74121 260.61 2.74121C261.19 2.74121 261.69 2.87722 262.11 3.14924C262.53 3.41726 262.852 3.78728 263.076 4.25931C263.304 4.73134 263.418 5.26937 263.418 5.87341C263.418 6.51344 263.29 7.07348 263.034 7.55351C262.778 8.03354 262.416 8.40556 261.948 8.66958C261.484 8.93359 260.938 9.0636 260.31 9.0596ZM260.376 8.04554C261.004 8.04554 261.48 7.85153 261.804 7.4635C262.128 7.07148 262.29 6.55145 262.29 5.90341C262.29 5.23937 262.122 4.71733 261.786 4.33731C261.45 3.95329 260.978 3.76128 260.37 3.76128C259.754 3.76128 259.282 3.95329 258.954 4.33731C258.63 4.71733 258.468 5.23937 258.468 5.90341C258.468 6.57145 258.632 7.09548 258.96 7.4755C259.288 7.85553 259.76 8.04554 260.376 8.04554ZM267.503 9.0536C266.859 9.0536 266.303 8.90759 265.835 8.61557C265.371 8.32355 265.013 7.91953 264.761 7.4035C264.509 6.88747 264.383 6.29543 264.383 5.62739C264.383 4.94735 264.511 4.35131 264.767 3.83928C265.023 3.32725 265.385 2.92923 265.853 2.64521C266.321 2.35719 266.871 2.21318 267.503 2.21318C268.151 2.21318 268.709 2.35919 269.177 2.65121C269.645 2.93923 270.003 3.34125 270.251 3.85728C270.503 4.36931 270.629 4.95935 270.629 5.62739C270.629 6.30343 270.503 6.89947 270.251 7.4155C269.999 7.92753 269.639 8.32956 269.171 8.62157C268.703 8.90959 268.147 9.0536 267.503 9.0536ZM267.503 8.03954C268.175 8.03954 268.675 7.81552 269.003 7.3675C269.331 6.91947 269.495 6.33943 269.495 5.62739C269.495 4.89535 269.329 4.31331 268.997 3.88128C268.665 3.44526 268.167 3.22724 267.503 3.22724C267.051 3.22724 266.679 3.32925 266.387 3.53326C266.095 3.73727 265.877 4.01929 265.733 4.37931C265.589 4.73934 265.517 5.15536 265.517 5.62739C265.517 6.35543 265.685 6.93947 266.021 7.3795C266.357 7.81952 266.851 8.03954 267.503 8.03954ZM273.526 8.87359V3.36525H271.27V2.39319H276.85V3.36525H274.594V8.87359H273.526ZM277.98 8.87359L277.986 2.39319H279.066V5.51338L281.784 2.39319H283.17L280.308 5.63339L283.506 8.87359H282.012L279.066 5.7534V8.87359H277.98ZM286.746 9.0536C286.102 9.0536 285.546 8.90759 285.078 8.61557C284.614 8.32355 284.256 7.91953 284.004 7.4035C283.752 6.88747 283.626 6.29543 283.626 5.62739C283.626 4.94735 283.754 4.35131 284.01 3.83928C284.266 3.32725 284.628 2.92923 285.096 2.64521C285.564 2.35719 286.114 2.21318 286.746 2.21318C287.394 2.21318 287.952 2.35919 288.421 2.65121C288.889 2.93923 289.247 3.34125 289.495 3.85728C289.747 4.36931 289.873 4.95935 289.873 5.62739C289.873 6.30343 289.747 6.89947 289.495 7.4155C289.243 7.92753 288.883 8.32956 288.415 8.62157C287.946 8.90959 287.39 9.0536 286.746 9.0536ZM286.746 8.03954C287.418 8.03954 287.918 7.81552 288.246 7.3675C288.575 6.91947 288.739 6.33943 288.739 5.62739C288.739 4.89535 288.573 4.31331 288.24 3.88128C287.908 3.44526 287.41 3.22724 286.746 3.22724C286.294 3.22724 285.922 3.32925 285.63 3.53326C285.338 3.73727 285.12 4.01929 284.976 4.37931C284.832 4.73934 284.76 5.15536 284.76 5.62739C284.76 6.35543 284.928 6.93947 285.264 7.3795C285.6 7.81952 286.094 8.03954 286.746 8.03954ZM293.984 1.63715C293.684 1.63715 293.41 1.56314 293.162 1.41513C292.914 1.26712 292.716 1.07111 292.568 0.827097C292.42 0.579082 292.346 0.303065 292.346 -0.000953733H293.21C293.21 0.211059 293.286 0.39307 293.438 0.54508C293.59 0.697089 293.772 0.773094 293.984 0.773094C294.2 0.773094 294.382 0.697089 294.53 0.54508C294.682 0.39307 294.758 0.211059 294.758 -0.000953733H295.622C295.622 0.303065 295.548 0.579082 295.4 0.827097C295.256 1.07111 295.058 1.26712 294.806 1.41513C294.558 1.56314 294.284 1.63715 293.984 1.63715ZM296.498 2.39319V8.87359H295.466V4.0973L292.07 8.87359H291.188V2.39319H292.22V7.10348L295.622 2.39319H296.498ZM300.575 8.87359V2.39319H305.885V8.87359H304.817V3.40725H301.643V8.87359H300.575ZM310.374 9.0536C309.738 9.0536 309.182 8.91359 308.706 8.63357C308.234 8.34956 307.866 7.95553 307.602 7.4515C307.338 6.94347 307.206 6.35143 307.206 5.67539C307.206 4.96735 307.336 4.35531 307.596 3.83928C307.856 3.31925 308.218 2.91922 308.682 2.63921C309.15 2.35519 309.698 2.21318 310.326 2.21318C310.978 2.21318 311.532 2.36319 311.988 2.66321C312.448 2.96323 312.792 3.39125 313.02 3.94729C313.252 4.50332 313.352 5.16536 313.32 5.93341H312.24V5.54939C312.228 4.75334 312.066 4.1593 311.754 3.76728C311.442 3.37125 310.978 3.17324 310.362 3.17324C309.702 3.17324 309.2 3.38525 308.856 3.80928C308.512 4.23331 308.34 4.84134 308.34 5.63339C308.34 6.39744 308.512 6.98947 308.856 7.4095C309.2 7.82952 309.69 8.03954 310.326 8.03954C310.754 8.03954 311.126 7.94153 311.442 7.74552C311.758 7.54951 312.006 7.26749 312.186 6.89947L313.212 7.25349C312.96 7.82552 312.58 8.26955 312.072 8.58557C311.568 8.89759 311.002 9.0536 310.374 9.0536ZM307.98 5.93341V5.07536H312.768V5.93341H307.98ZM317.632 9.0536C317.024 9.0536 316.512 8.90359 316.096 8.60357C315.68 8.29955 315.364 7.88953 315.148 7.3735C314.936 6.85347 314.83 6.27143 314.83 5.62739C314.83 4.97535 314.936 4.39131 315.148 3.87528C315.364 3.35925 315.68 2.95323 316.096 2.65721C316.516 2.36119 317.03 2.21318 317.638 2.21318C318.238 2.21318 318.754 2.36319 319.186 2.66321C319.622 2.95923 319.956 3.36525 320.188 3.88128C320.42 4.39732 320.536 4.97935 320.536 5.62739C320.536 6.27543 320.42 6.85747 320.188 7.3735C319.956 7.88953 319.622 8.29955 319.186 8.60357C318.754 8.90359 318.236 9.0536 317.632 9.0536ZM314.65 11.7538V2.39319H315.604V7.16348H315.724V11.7538H314.65ZM317.5 8.07554C317.928 8.07554 318.282 7.96753 318.562 7.75152C318.842 7.53551 319.052 7.24349 319.192 6.87547C319.332 6.50344 319.402 6.08742 319.402 5.62739C319.402 5.17136 319.332 4.75934 319.192 4.39131C319.056 4.02329 318.844 3.73127 318.556 3.51526C318.272 3.29925 317.91 3.19124 317.47 3.19124C317.05 3.19124 316.702 3.29525 316.426 3.50326C316.15 3.70727 315.944 3.99329 315.808 4.36131C315.672 4.72534 315.604 5.14736 315.604 5.62739C315.604 6.09942 315.67 6.52144 315.802 6.89347C315.938 7.26149 316.146 7.55151 316.426 7.76352C316.706 7.97153 317.064 8.07554 317.5 8.07554ZM324.582 9.0536C323.926 9.0536 323.368 8.90759 322.908 8.61557C322.452 8.31955 322.104 7.91353 321.864 7.3975C321.624 6.88147 321.5 6.29343 321.492 5.63339C321.5 4.95735 321.626 4.36331 321.87 3.85128C322.118 3.33525 322.472 2.93323 322.932 2.64521C323.392 2.35719 323.946 2.21318 324.594 2.21318C325.278 2.21318 325.866 2.38119 326.358 2.71721C326.854 3.05323 327.186 3.51326 327.354 4.0973L326.298 4.41532C326.162 4.03929 325.94 3.74728 325.632 3.53926C325.328 3.33125 324.978 3.22724 324.582 3.22724C324.138 3.22724 323.772 3.33125 323.484 3.53926C323.196 3.74327 322.982 4.02729 322.842 4.39131C322.702 4.75134 322.63 5.16536 322.626 5.63339C322.634 6.35343 322.8 6.93547 323.124 7.3795C323.452 7.81952 323.938 8.03954 324.582 8.03954C325.006 8.03954 325.358 7.94353 325.638 7.75152C325.918 7.55551 326.13 7.27349 326.274 6.90547L327.354 7.18749C327.13 7.79152 326.78 8.25355 326.304 8.57357C325.828 8.89359 325.254 9.0536 324.582 9.0536ZM331.163 9.0536C330.519 9.0536 329.963 8.90759 329.495 8.61557C329.031 8.32355 328.673 7.91953 328.421 7.4035C328.169 6.88747 328.043 6.29543 328.043 5.62739C328.043 4.94735 328.171 4.35131 328.427 3.83928C328.683 3.32725 329.045 2.92923 329.513 2.64521C329.981 2.35719 330.531 2.21318 331.163 2.21318C331.811 2.21318 332.369 2.35919 332.837 2.65121C333.305 2.93923 333.663 3.34125 333.911 3.85728C334.163 4.36931 334.289 4.95935 334.289 5.62739C334.289 6.30343 334.163 6.89947 333.911 7.4155C333.659 7.92753 333.299 8.32956 332.831 8.62157C332.363 8.90959 331.807 9.0536 331.163 9.0536ZM331.163 8.03954C331.835 8.03954 332.335 7.81552 332.663 7.3675C332.991 6.91947 333.155 6.33943 333.155 5.62739C333.155 4.89535 332.989 4.31331 332.657 3.88128C332.325 3.44526 331.827 3.22724 331.163 3.22724C330.711 3.22724 330.339 3.32925 330.047 3.53326C329.755 3.73727 329.537 4.01929 329.393 4.37931C329.249 4.73934 329.177 5.15536 329.177 5.62739C329.177 6.35543 329.345 6.93947 329.681 7.3795C330.017 7.81952 330.511 8.03954 331.163 8.03954ZM335.604 8.87359V2.39319H336.673V5.12336H340.081V2.39319H341.149V8.87359H340.081V6.13742H336.673V8.87359H335.604ZM344.672 9.0536C344.188 9.0536 343.782 8.96559 343.454 8.78958C343.13 8.60957 342.884 8.37356 342.716 8.08154C342.552 7.78952 342.47 7.4695 342.47 7.12148C342.47 6.78146 342.534 6.48744 342.662 6.23943C342.794 5.98741 342.978 5.7794 343.214 5.61539C343.45 5.44738 343.732 5.31537 344.06 5.21937C344.368 5.13536 344.712 5.06336 345.092 5.00335C345.476 4.93935 345.864 4.88134 346.256 4.82934C346.648 4.77734 347.014 4.72734 347.354 4.67933L346.97 4.90135C346.982 4.32531 346.866 3.89928 346.622 3.62327C346.382 3.34725 345.966 3.20924 345.374 3.20924C344.982 3.20924 344.638 3.29925 344.342 3.47926C344.05 3.65527 343.844 3.94329 343.724 4.34331L342.71 4.03729C342.866 3.46926 343.168 3.02323 343.616 2.69921C344.064 2.37519 344.654 2.21318 345.386 2.21318C345.974 2.21318 346.478 2.31919 346.898 2.5312C347.322 2.73921 347.626 3.05523 347.81 3.47926C347.902 3.67927 347.96 3.89728 347.984 4.1333C348.008 4.36531 348.02 4.60933 348.02 4.86534V8.87359H347.072V7.31949L347.294 7.4635C347.05 7.98753 346.708 8.38356 346.268 8.65157C345.832 8.91959 345.3 9.0536 344.672 9.0536ZM344.834 8.15954C345.218 8.15954 345.55 8.09154 345.83 7.95553C346.114 7.81552 346.342 7.63351 346.514 7.4095C346.686 7.18149 346.798 6.93347 346.85 6.66545C346.91 6.46544 346.942 6.24343 346.946 5.99941C346.954 5.7514 346.958 5.56139 346.958 5.42938L347.33 5.59139C346.982 5.63939 346.64 5.68539 346.304 5.7294C345.968 5.7734 345.65 5.8214 345.35 5.87341C345.05 5.92141 344.78 5.97941 344.54 6.04742C344.364 6.10342 344.198 6.17542 344.042 6.26343C343.89 6.35143 343.766 6.46544 343.67 6.60545C343.578 6.74146 343.532 6.91147 343.532 7.11548C343.532 7.29149 343.576 7.4595 343.664 7.61951C343.756 7.77952 343.896 7.90953 344.084 8.00954C344.276 8.10954 344.526 8.15954 344.834 8.15954ZM348.98 8.87359V7.95553C349.22 7.99954 349.402 7.99153 349.526 7.93153C349.654 7.86753 349.748 7.75752 349.808 7.60151C349.872 7.4415 349.924 7.24149 349.964 7.00147C350.032 6.62145 350.09 6.19743 350.138 5.7294C350.19 5.26137 350.236 4.74934 350.276 4.1933C350.32 3.63327 350.36 3.03323 350.396 2.39319H354.926V8.87359H353.858V3.40725H351.368C351.344 3.77528 351.314 4.1533 351.278 4.54132C351.246 4.92935 351.212 5.30737 351.176 5.67539C351.14 6.03942 351.1 6.37944 351.056 6.69546C351.016 7.00747 350.972 7.27749 350.924 7.5055C350.848 7.89753 350.742 8.21155 350.606 8.44756C350.47 8.67958 350.274 8.82959 350.018 8.89759C349.762 8.96959 349.416 8.96159 348.98 8.87359ZM356.612 8.87359L356.606 2.39319H357.68V4.73934H359.078C359.266 4.73934 359.458 4.74334 359.654 4.75134C359.85 4.75934 360.02 4.77734 360.164 4.80534C360.5 4.86934 360.794 4.98135 361.046 5.14136C361.298 5.30137 361.494 5.51938 361.634 5.7954C361.774 6.06742 361.844 6.40544 361.844 6.80946C361.844 7.3695 361.698 7.81352 361.406 8.14154C361.118 8.46556 360.74 8.68158 360.272 8.78958C360.112 8.82559 359.928 8.84959 359.72 8.86159C359.516 8.86959 359.322 8.87359 359.138 8.87359H356.612ZM357.68 7.99153H359.156C359.276 7.99153 359.41 7.98753 359.558 7.97953C359.706 7.97153 359.838 7.95153 359.954 7.91953C360.158 7.85953 360.34 7.74152 360.5 7.56551C360.664 7.3895 360.746 7.13748 360.746 6.80946C360.746 6.47744 360.666 6.22143 360.506 6.04142C360.35 5.8614 360.144 5.7434 359.888 5.68739C359.772 5.65939 359.65 5.64139 359.522 5.63339C359.394 5.62539 359.272 5.62139 359.156 5.62139H357.68V7.99153ZM362.981 8.87359V2.39319H364.049V5.12336H367.457V2.39319H368.525V8.87359H367.457V6.13742H364.049V8.87359H362.981ZM370.206 8.87359L370.2 2.39319H371.274V4.73934H372.264C372.452 4.73934 372.644 4.74334 372.841 4.75134C373.037 4.75934 373.207 4.77734 373.351 4.80534C373.687 4.87334 373.981 4.98735 374.233 5.14736C374.485 5.30737 374.681 5.52338 374.821 5.7954C374.961 6.06742 375.031 6.40544 375.031 6.80946C375.031 7.3695 374.885 7.81352 374.593 8.14154C374.305 8.46556 373.927 8.68158 373.459 8.78958C373.299 8.82559 373.115 8.84959 372.907 8.86159C372.702 8.86959 372.508 8.87359 372.324 8.87359H370.206ZM371.274 7.99153H372.342C372.462 7.99153 372.596 7.98753 372.745 7.97953C372.893 7.97153 373.025 7.95153 373.141 7.91953C373.345 7.85953 373.527 7.74152 373.687 7.56551C373.851 7.3895 373.933 7.13748 373.933 6.80946C373.933 6.47744 373.853 6.22143 373.693 6.04142C373.537 5.8614 373.331 5.7434 373.075 5.68739C372.959 5.65939 372.837 5.64139 372.708 5.63339C372.58 5.62539 372.458 5.62139 372.342 5.62139H371.274V7.99153ZM375.775 8.87359V2.39319H376.843V8.87359H375.775ZM377.807 8.87359L380.285 5.59739L377.861 2.39319H379.133L380.909 4.76934L382.667 2.39319H383.939L381.515 5.59739L384 8.87359H382.721L380.909 6.42544L379.085 8.87359H377.807ZM0.000625052 26.3147V23.9925C0.364647 23.9925 0.624663 23.8745 0.780673 23.6385C0.936682 23.3985 1.06269 23.0045 1.1587 22.4564C1.2227 22.1124 1.2747 21.7444 1.31471 21.3524C1.35471 20.9603 1.38871 20.5243 1.41671 20.0443C1.44871 19.5602 1.47872 19.0102 1.50672 18.3942H5.97099V23.9925H6.60103V26.3147H5.58097V24.8746H1.02069V26.3147H0.000625052ZM1.64473 23.9925H4.90292V19.2762H2.47278C2.46078 19.5602 2.44477 19.8583 2.42477 20.1703C2.40477 20.4783 2.38077 20.7863 2.35277 21.0943C2.32877 21.4024 2.29877 21.6944 2.26276 21.9704C2.23076 22.2424 2.19276 22.4864 2.14876 22.7024C2.09675 23.0025 2.03675 23.2565 1.96875 23.4645C1.90074 23.6725 1.79273 23.8485 1.64473 23.9925ZM9.64743 25.0546C9.1634 25.0546 8.75738 24.9666 8.42936 24.7906C8.10534 24.6105 7.85932 24.3745 7.69131 24.0825C7.5273 23.7905 7.4453 23.4705 7.4453 23.1225C7.4453 22.7824 7.5093 22.4884 7.63731 22.2404C7.76932 21.9884 7.95333 21.7804 8.18934 21.6164C8.42536 21.4484 8.70738 21.3163 9.0354 21.2203C9.34341 21.1363 9.68744 21.0643 10.0675 21.0043C10.4515 20.9403 10.8395 20.8823 11.2315 20.8303C11.6236 20.7783 11.9896 20.7283 12.3296 20.6803L11.9456 20.9023C11.9576 20.3263 11.8416 19.9003 11.5976 19.6242C11.3575 19.3482 10.9415 19.2102 10.3495 19.2102C9.95745 19.2102 9.61343 19.3002 9.31741 19.4802C9.02539 19.6562 8.81938 19.9443 8.69937 20.3443L7.68531 20.0383C7.84132 19.4702 8.14334 19.0242 8.59137 18.7002C9.0394 18.3762 9.62943 18.2142 10.3615 18.2142C10.9495 18.2142 11.4535 18.3202 11.8736 18.5322C12.2976 18.7402 12.6016 19.0562 12.7856 19.4802C12.8776 19.6802 12.9356 19.8983 12.9596 20.1343C12.9836 20.3663 12.9956 20.6103 12.9956 20.8663V24.8746H12.0476V23.3205L12.2696 23.4645C12.0256 23.9885 11.6836 24.3845 11.2435 24.6526C10.8075 24.9206 10.2755 25.0546 9.64743 25.0546ZM9.80944 24.1605C10.1935 24.1605 10.5255 24.0925 10.8055 23.9565C11.0895 23.8165 11.3175 23.6345 11.4895 23.4105C11.6616 23.1825 11.7736 22.9344 11.8256 22.6664C11.8856 22.4664 11.9176 22.2444 11.9216 22.0004C11.9296 21.7524 11.9336 21.5624 11.9336 21.4304L12.3056 21.5924C11.9576 21.6404 11.6156 21.6864 11.2795 21.7304C10.9435 21.7744 10.6255 21.8224 10.3255 21.8744C10.0255 21.9224 9.75544 21.9804 9.51542 22.0484C9.33941 22.1044 9.1734 22.1764 9.01739 22.2644C8.86538 22.3524 8.74138 22.4664 8.64537 22.6064C8.55337 22.7424 8.50736 22.9124 8.50736 23.1165C8.50736 23.2925 8.55137 23.4605 8.63937 23.6205C8.73138 23.7805 8.87139 23.9105 9.0594 24.0105C9.25141 24.1105 9.50142 24.1605 9.80944 24.1605ZM14.5497 24.8746V18.3942H15.6178V21.1243H19.026V18.3942H20.0941V24.8746H19.026V22.1384H15.6178V24.8746H14.5497ZM21.7689 24.8746V18.3942H22.837V21.1243H26.2452V18.3942H27.3133V24.8746H26.2452V22.1384H22.837V24.8746H21.7689ZM28.9941 24.8746L28.9881 18.3942H30.0622V20.7403H31.0522C31.2403 20.7403 31.4323 20.7443 31.6283 20.7523C31.8243 20.7603 31.9943 20.7783 32.1383 20.8063C32.4743 20.8743 32.7683 20.9883 33.0204 21.1483C33.2724 21.3083 33.4684 21.5244 33.6084 21.7964C33.7484 22.0684 33.8184 22.4064 33.8184 22.8104C33.8184 23.3705 33.6724 23.8145 33.3804 24.1425C33.0924 24.4665 32.7143 24.6826 32.2463 24.7906C32.0863 24.8266 31.9023 24.8506 31.6943 24.8626C31.4903 24.8706 31.2963 24.8746 31.1122 24.8746H28.9941ZM30.0622 23.9925H31.1302C31.2503 23.9925 31.3843 23.9885 31.5323 23.9805C31.6803 23.9725 31.8123 23.9525 31.9283 23.9205C32.1323 23.8605 32.3143 23.7425 32.4743 23.5665C32.6383 23.3905 32.7203 23.1385 32.7203 22.8104C32.7203 22.4784 32.6403 22.2224 32.4803 22.0424C32.3243 21.8624 32.1183 21.7444 31.8623 21.6884C31.7463 21.6604 31.6243 21.6424 31.4963 21.6344C31.3683 21.6264 31.2463 21.6224 31.1302 21.6224H30.0622V23.9925ZM34.5625 24.8746V18.3942H35.6305V24.8746H34.5625ZM36.5949 24.8746L39.073 21.5984L36.6489 18.3942H37.921L39.6971 20.7703L41.4552 18.3942H42.7273L40.3031 21.5984L42.7873 24.8746H41.5092L39.6971 22.4264L37.873 24.8746H36.5949ZM46.1454 24.8746V18.3942H47.2135V21.1243H50.6217V18.3942H51.6897V24.8746H50.6217V22.1384H47.2135V24.8746H46.1454ZM55.2127 25.0546C54.7287 25.0546 54.3227 24.9666 53.9946 24.7906C53.6706 24.6105 53.4246 24.3745 53.2566 24.0825C53.0926 23.7905 53.0106 23.4705 53.0106 23.1225C53.0106 22.7824 53.0746 22.4884 53.2026 22.2404C53.3346 21.9884 53.5186 21.7804 53.7546 21.6164C53.9906 21.4484 54.2727 21.3163 54.6007 21.2203C54.9087 21.1363 55.2527 21.0643 55.6327 21.0043C56.0168 20.9403 56.4048 20.8823 56.7968 20.8303C57.1888 20.7783 57.5549 20.7283 57.8949 20.6803L57.5109 20.9023C57.5229 20.3263 57.4068 19.9003 57.1628 19.6242C56.9228 19.3482 56.5068 19.2102 55.9148 19.2102C55.5227 19.2102 55.1787 19.3002 54.8827 19.4802C54.5907 19.6562 54.3847 19.9443 54.2647 20.3443L53.2506 20.0383C53.4066 19.4702 53.7086 19.0242 54.1566 18.7002C54.6047 18.3762 55.1947 18.2142 55.9268 18.2142C56.5148 18.2142 57.0188 18.3202 57.4388 18.5322C57.8629 18.7402 58.1669 19.0562 58.3509 19.4802C58.4429 19.6802 58.5009 19.8983 58.5249 20.1343C58.5489 20.3663 58.5609 20.6103 58.5609 20.8663V24.8746H57.6129V23.3205L57.8349 23.4645C57.5909 23.9885 57.2488 24.3845 56.8088 24.6526C56.3728 24.9206 55.8408 25.0546 55.2127 25.0546ZM55.3747 24.1605C55.7587 24.1605 56.0908 24.0925 56.3708 23.9565C56.6548 23.8165 56.8828 23.6345 57.0548 23.4105C57.2268 23.1825 57.3388 22.9344 57.3908 22.6664C57.4509 22.4664 57.4829 22.2444 57.4869 22.0004C57.4949 21.7524 57.4989 21.5624 57.4989 21.4304L57.8709 21.5924C57.5229 21.6404 57.1808 21.6864 56.8448 21.7304C56.5088 21.7744 56.1908 21.8224 55.8908 21.8744C55.5907 21.9224 55.3207 21.9804 55.0807 22.0484C54.9047 22.1044 54.7387 22.1764 54.5827 22.2644C54.4307 22.3524 54.3067 22.4664 54.2107 22.6064C54.1186 22.7424 54.0726 22.9124 54.0726 23.1165C54.0726 23.2925 54.1166 23.4605 54.2047 23.6205C54.2967 23.7805 54.4367 23.9105 54.6247 24.0105C54.8167 24.1105 55.0667 24.1605 55.3747 24.1605ZM63.4236 27.7547L64.6776 24.3465L64.6956 25.3546L61.8635 18.3942H62.9855L65.2057 23.9925H64.8216L66.9038 18.3942H67.9898L64.4616 27.7547H63.4236ZM71.4767 25.0546C70.8207 25.0546 70.2626 24.9086 69.8026 24.6165C69.3466 24.3205 68.9986 23.9145 68.7585 23.3985C68.5185 22.8824 68.3945 22.2944 68.3865 21.6344C68.3945 20.9583 68.5205 20.3643 68.7645 19.8523C69.0126 19.3362 69.3666 18.9342 69.8266 18.6462C70.2866 18.3582 70.8407 18.2142 71.4887 18.2142C72.1727 18.2142 72.7608 18.3822 73.2528 18.7182C73.7488 19.0542 74.0809 19.5142 74.2489 20.0983L73.1928 20.4163C73.0568 20.0403 72.8348 19.7483 72.5268 19.5402C72.2228 19.3322 71.8727 19.2282 71.4767 19.2282C71.0327 19.2282 70.6667 19.3322 70.3786 19.5402C70.0906 19.7443 69.8766 20.0283 69.7366 20.3923C69.5966 20.7523 69.5246 21.1663 69.5206 21.6344C69.5286 22.3544 69.6946 22.9364 70.0186 23.3805C70.3466 23.8205 70.8327 24.0405 71.4767 24.0405C71.9007 24.0405 72.2528 23.9445 72.5328 23.7525C72.8128 23.5565 73.0248 23.2745 73.1688 22.9064L74.2489 23.1885C74.0249 23.7925 73.6748 24.2545 73.1988 24.5745C72.7228 24.8946 72.1487 25.0546 71.4767 25.0546ZM74.6977 24.8746V23.9565C74.9377 24.0005 75.1197 23.9925 75.2437 23.9325C75.3717 23.8685 75.4657 23.7585 75.5257 23.6025C75.5897 23.4425 75.6417 23.2425 75.6817 23.0025C75.7497 22.6224 75.8078 22.1984 75.8558 21.7304C75.9078 21.2623 75.9538 20.7503 75.9938 20.1943C76.0378 19.6342 76.0778 19.0342 76.1138 18.3942H80.644V24.8746H79.576V19.4082H77.0858C77.0618 19.7763 77.0318 20.1543 76.9958 20.5423C76.9638 20.9303 76.9298 21.3083 76.8938 21.6764C76.8578 22.0404 76.8178 22.3804 76.7738 22.6964C76.7338 23.0085 76.6898 23.2785 76.6418 23.5065C76.5658 23.8985 76.4598 24.2125 76.3238 24.4485C76.1878 24.6806 75.9918 24.8306 75.7357 24.8986C75.4797 24.9706 75.1337 24.9626 74.6977 24.8746ZM85.0896 25.0546C84.4455 25.0546 83.8895 24.9086 83.4215 24.6165C82.9574 24.3245 82.5994 23.9205 82.3474 23.4045C82.0954 22.8884 81.9694 22.2964 81.9694 21.6284C81.9694 20.9483 82.0974 20.3523 82.3534 19.8403C82.6094 19.3282 82.9714 18.9302 83.4395 18.6462C83.9075 18.3582 84.4575 18.2142 85.0896 18.2142C85.7376 18.2142 86.2956 18.3602 86.7637 18.6522C87.2317 18.9402 87.5897 19.3422 87.8377 19.8583C88.0898 20.3703 88.2158 20.9603 88.2158 21.6284C88.2158 22.3044 88.0898 22.9004 87.8377 23.4165C87.5857 23.9285 87.2257 24.3305 86.7577 24.6225C86.2896 24.9106 85.7336 25.0546 85.0896 25.0546ZM85.0896 24.0405C85.7616 24.0405 86.2616 23.8165 86.5897 23.3685C86.9177 22.9204 87.0817 22.3404 87.0817 21.6284C87.0817 20.8963 86.9157 20.3143 86.5837 19.8823C86.2516 19.4462 85.7536 19.2282 85.0896 19.2282C84.6375 19.2282 84.2655 19.3302 83.9735 19.5342C83.6815 19.7383 83.4635 20.0203 83.3195 20.3803C83.1755 20.7403 83.1034 21.1563 83.1034 21.6284C83.1034 22.3564 83.2715 22.9404 83.6075 23.3805C83.9435 23.8205 84.4375 24.0405 85.0896 24.0405ZM89.5309 24.8746V18.3942H92.291C92.455 18.3942 92.6311 18.4042 92.8191 18.4242C93.0111 18.4402 93.1851 18.4702 93.3411 18.5142C93.6891 18.6062 93.9751 18.7962 94.1992 19.0842C94.4272 19.3682 94.5412 19.7283 94.5412 20.1643C94.5412 20.4083 94.5032 20.6203 94.4272 20.8003C94.3552 20.9803 94.2512 21.1363 94.1152 21.2683C94.0551 21.3283 93.9891 21.3824 93.9171 21.4304C93.8451 21.4784 93.7731 21.5164 93.7011 21.5444C93.8411 21.5684 93.9831 21.6224 94.1272 21.7064C94.3552 21.8304 94.5332 22.0044 94.6612 22.2284C94.7932 22.4524 94.8592 22.7384 94.8592 23.0865C94.8592 23.5265 94.7532 23.8905 94.5412 24.1785C94.3292 24.4625 94.0371 24.6586 93.6651 24.7666C93.5091 24.8106 93.3371 24.8406 93.1491 24.8566C92.9611 24.8686 92.7791 24.8746 92.6031 24.8746H89.5309ZM90.6109 24.0045H92.5431C92.6271 24.0045 92.7271 23.9965 92.8431 23.9805C92.9631 23.9645 93.0691 23.9445 93.1611 23.9205C93.3691 23.8605 93.5191 23.7485 93.6111 23.5845C93.7071 23.4205 93.7551 23.2425 93.7551 23.0505C93.7551 22.7944 93.6831 22.5864 93.5391 22.4264C93.3991 22.2664 93.2131 22.1664 92.9811 22.1264C92.8971 22.1024 92.8051 22.0884 92.7051 22.0844C92.6091 22.0804 92.5231 22.0784 92.447 22.0784H90.6109V24.0045ZM90.6109 21.1963H92.219C92.331 21.1963 92.449 21.1903 92.5731 21.1783C92.6971 21.1623 92.8051 21.1363 92.8971 21.1003C93.0811 21.0323 93.2151 20.9203 93.2991 20.7643C93.3871 20.6043 93.4311 20.4303 93.4311 20.2423C93.4311 20.0343 93.3831 19.8523 93.2871 19.6962C93.1951 19.5362 93.0531 19.4262 92.8611 19.3662C92.7331 19.3182 92.5891 19.2922 92.429 19.2882C92.273 19.2802 92.173 19.2762 92.129 19.2762H90.6109V21.1963ZM101.369 18.3942V24.8746H100.337V20.0983L96.9407 24.8746H96.0586V18.3942H97.0907V23.1045L100.493 18.3942H101.369ZM107.052 24.8746V22.5284H105.654C105.49 22.5284 105.308 22.5224 105.108 22.5104C104.912 22.4944 104.728 22.4724 104.556 22.4444C104.087 22.3564 103.691 22.1504 103.367 21.8264C103.047 21.5024 102.887 21.0543 102.887 20.4823C102.887 19.9263 103.037 19.4802 103.337 19.1442C103.641 18.8042 104.015 18.5842 104.46 18.4842C104.66 18.4362 104.862 18.4102 105.066 18.4062C105.274 18.3982 105.45 18.3942 105.594 18.3942H108.12L108.126 24.8746H107.052ZM102.689 24.8746L104.411 22.2344H105.564L103.841 24.8746H102.689ZM105.576 21.6464H107.052V19.2762H105.576C105.484 19.2762 105.362 19.2802 105.21 19.2882C105.062 19.2962 104.92 19.3202 104.784 19.3602C104.656 19.3962 104.53 19.4622 104.405 19.5582C104.285 19.6542 104.185 19.7783 104.105 19.9303C104.025 20.0823 103.985 20.2623 103.985 20.4703C103.985 20.7703 104.069 21.0143 104.237 21.2023C104.405 21.3864 104.61 21.5104 104.85 21.5744C104.982 21.6064 105.112 21.6264 105.24 21.6344C105.372 21.6424 105.484 21.6464 105.576 21.6464ZM109.092 24.8746L111.57 21.5984L109.146 18.3942H110.418L112.194 20.7703L113.952 18.3942H115.224L112.8 21.5984L115.284 24.8746H114.006L112.194 22.4264L110.37 24.8746H109.092ZM303.867 24.8746V23.6985H305.043V24.8746H303.867Z" fill="#7A7687"/>
<path d="M118.648 24.8746V16.234H125.392V24.8746H124.324V17.2481H119.716V24.8746H118.648ZM129.834 25.0546C129.19 25.0546 128.634 24.9086 128.166 24.6165C127.702 24.3245 127.344 23.9205 127.092 23.4045C126.84 22.8884 126.714 22.2964 126.714 21.6284C126.714 20.9483 126.842 20.3523 127.098 19.8403C127.354 19.3282 127.716 18.9302 128.184 18.6462C128.652 18.3582 129.202 18.2142 129.834 18.2142C130.483 18.2142 131.041 18.3602 131.509 18.6522C131.977 18.9402 132.335 19.3422 132.583 19.8583C132.835 20.3703 132.961 20.9603 132.961 21.6284C132.961 22.3044 132.835 22.9004 132.583 23.4165C132.331 23.9285 131.971 24.3305 131.503 24.6225C131.035 24.9106 130.479 25.0546 129.834 25.0546ZM129.834 24.0405C130.507 24.0405 131.007 23.8165 131.335 23.3685C131.663 22.9204 131.827 22.3404 131.827 21.6284C131.827 20.8963 131.661 20.3143 131.329 19.8823C130.997 19.4462 130.499 19.2282 129.834 19.2282C129.382 19.2282 129.01 19.3302 128.718 19.5342C128.426 19.7383 128.208 20.0203 128.064 20.3803C127.92 20.7403 127.848 21.1563 127.848 21.6284C127.848 22.3564 128.016 22.9404 128.352 23.3805C128.688 23.8205 129.182 24.0405 129.834 24.0405ZM133.682 24.8746V23.9565C133.922 24.0005 134.104 23.9925 134.228 23.9325C134.356 23.8685 134.45 23.7585 134.51 23.6025C134.574 23.4425 134.626 23.2425 134.666 23.0025C134.734 22.6224 134.792 22.1984 134.84 21.7304C134.892 21.2623 134.938 20.7503 134.978 20.1943C135.022 19.6342 135.062 19.0342 135.098 18.3942H139.628V24.8746H138.56V19.4082H136.07C136.046 19.7763 136.016 20.1543 135.98 20.5423C135.948 20.9303 135.914 21.3083 135.878 21.6764C135.842 22.0404 135.802 22.3804 135.758 22.6964C135.718 23.0085 135.674 23.2785 135.626 23.5065C135.55 23.8985 135.444 24.2125 135.308 24.4485C135.172 24.6806 134.976 24.8306 134.72 24.8986C134.464 24.9706 134.118 24.9626 133.682 24.8746ZM146.618 18.3942V24.8746H145.586V20.0983L142.19 24.8746H141.307V18.3942H142.34V23.1045L145.742 18.3942H146.618ZM150.014 24.8746V19.3662H147.758V18.3942H153.339V19.3662H151.082V24.8746H150.014ZM159.779 18.3942V24.8746H158.747V20.0983L155.35 24.8746H154.468V18.3942H155.5V23.1045L158.903 18.3942H159.779ZM161.453 24.8746L161.459 18.3942H162.539V21.5144L165.257 18.3942H166.644L163.781 21.6344L166.98 24.8746H165.485L162.539 21.7544V24.8746H161.453ZM172.881 18.3942V24.8746H171.849V20.0983L168.453 24.8746H167.571V18.3942H168.603V23.1045L172.005 18.3942H172.881ZM176.958 24.8746L176.964 18.3942H178.044V21.5144L180.762 18.3942H182.148L179.286 21.6344L182.484 24.8746H180.99L178.044 21.7544V24.8746H176.958ZM185.725 25.0546C185.081 25.0546 184.525 24.9086 184.057 24.6165C183.592 24.3245 183.234 23.9205 182.982 23.4045C182.73 22.8884 182.604 22.2964 182.604 21.6284C182.604 20.9483 182.732 20.3523 182.988 19.8403C183.244 19.3282 183.606 18.9302 184.075 18.6462C184.543 18.3582 185.093 18.2142 185.725 18.2142C186.373 18.2142 186.931 18.3602 187.399 18.6522C187.867 18.9402 188.225 19.3422 188.473 19.8583C188.725 20.3703 188.851 20.9603 188.851 21.6284C188.851 22.3044 188.725 22.9004 188.473 23.4165C188.221 23.9285 187.861 24.3305 187.393 24.6225C186.925 24.9106 186.369 25.0546 185.725 25.0546ZM185.725 24.0405C186.397 24.0405 186.897 23.8165 187.225 23.3685C187.553 22.9204 187.717 22.3404 187.717 21.6284C187.717 20.8963 187.551 20.3143 187.219 19.8823C186.887 19.4462 186.389 19.2282 185.725 19.2282C185.273 19.2282 184.901 19.3302 184.609 19.5342C184.317 19.7383 184.099 20.0203 183.955 20.3803C183.811 20.7403 183.738 21.1563 183.738 21.6284C183.738 22.3564 183.907 22.9404 184.243 23.3805C184.579 23.8205 185.073 24.0405 185.725 24.0405ZM190.166 24.8746V18.3942H191.234V21.1243H194.642V18.3942H195.71V24.8746H194.642V22.1384H191.234V24.8746H190.166ZM200.451 27.5747V24.9946C199.819 25.0946 199.243 25.0266 198.723 24.7906C198.207 24.5505 197.795 24.1645 197.487 23.6325C197.183 23.0965 197.031 22.4324 197.031 21.6404C197.031 20.8443 197.183 20.1783 197.487 19.6422C197.795 19.1062 198.207 18.7202 198.723 18.4842C199.243 18.2442 199.819 18.1742 200.451 18.2742V16.3H201.423V18.2742C202.055 18.1742 202.629 18.2442 203.145 18.4842C203.665 18.7202 204.078 19.1062 204.382 19.6422C204.69 20.1783 204.844 20.8443 204.844 21.6404C204.844 22.4324 204.69 23.0965 204.382 23.6325C204.078 24.1645 203.665 24.5505 203.145 24.7906C202.629 25.0266 202.055 25.0946 201.423 24.9946V27.5747H200.451ZM200.451 24.0165V19.2582C200.127 19.2022 199.825 19.2122 199.545 19.2882C199.265 19.3602 199.019 19.4962 198.807 19.6962C198.595 19.8963 198.429 20.1583 198.309 20.4823C198.189 20.8063 198.129 21.1923 198.129 21.6404C198.129 22.0844 198.189 22.4684 198.309 22.7924C198.433 23.1165 198.601 23.3785 198.813 23.5785C199.029 23.7745 199.277 23.9105 199.557 23.9865C199.837 24.0585 200.135 24.0685 200.451 24.0165ZM201.423 24.0165C201.739 24.0685 202.037 24.0585 202.317 23.9865C202.597 23.9145 202.845 23.7805 203.061 23.5845C203.277 23.3845 203.445 23.1225 203.565 22.7984C203.685 22.4744 203.745 22.0884 203.745 21.6404C203.745 21.1883 203.685 20.8003 203.565 20.4763C203.449 20.1523 203.285 19.8903 203.073 19.6902C202.861 19.4902 202.613 19.3542 202.329 19.2822C202.049 19.2102 201.747 19.2022 201.423 19.2582V24.0165ZM211.473 18.3942V24.8746H210.441V20.0983L207.045 24.8746H206.163V18.3942H207.195V23.1045L210.597 18.3942H211.473ZM212.674 26.3147V23.9925C213.038 23.9925 213.298 23.8745 213.454 23.6385C213.61 23.3985 213.736 23.0045 213.832 22.4564C213.896 22.1124 213.948 21.7444 213.988 21.3524C214.028 20.9603 214.062 20.5243 214.09 20.0443C214.122 19.5602 214.152 19.0102 214.18 18.3942H218.644V23.9925H219.274V26.3147H218.254V24.8746H213.694V26.3147H212.674ZM214.318 23.9925H217.576V19.2762H215.146C215.134 19.5602 215.118 19.8583 215.098 20.1703C215.078 20.4783 215.054 20.7863 215.026 21.0943C215.002 21.4024 214.972 21.6944 214.936 21.9704C214.904 22.2424 214.866 22.4864 214.822 22.7024C214.77 23.0025 214.71 23.2565 214.642 23.4645C214.574 23.6725 214.466 23.8485 214.318 23.9925ZM223.287 25.0546C222.651 25.0546 222.095 24.9146 221.619 24.6346C221.146 24.3505 220.778 23.9565 220.514 23.4525C220.25 22.9444 220.118 22.3524 220.118 21.6764C220.118 20.9683 220.248 20.3563 220.508 19.8403C220.768 19.3202 221.13 18.9202 221.595 18.6402C222.063 18.3562 222.611 18.2142 223.239 18.2142C223.891 18.2142 224.445 18.3642 224.901 18.6642C225.361 18.9642 225.705 19.3922 225.933 19.9483C226.165 20.5043 226.265 21.1663 226.233 21.9344H225.153V21.5504C225.141 20.7543 224.979 20.1603 224.667 19.7683C224.355 19.3722 223.891 19.1742 223.275 19.1742C222.615 19.1742 222.113 19.3862 221.769 19.8103C221.425 20.2343 221.253 20.8423 221.253 21.6344C221.253 22.3984 221.425 22.9905 221.769 23.4105C222.113 23.8305 222.603 24.0405 223.239 24.0405C223.667 24.0405 224.039 23.9425 224.355 23.7465C224.671 23.5505 224.919 23.2685 225.099 22.9004L226.125 23.2545C225.873 23.8265 225.493 24.2705 224.985 24.5865C224.481 24.8986 223.915 25.0546 223.287 25.0546ZM220.892 21.9344V21.0763H225.681V21.9344H220.892ZM227.563 24.8746V18.3942H228.631V21.1243H232.039V18.3942H233.107V24.8746H232.039V22.1384H228.631V24.8746H227.563ZM240.308 26.0746V24.8746H234.782V18.3942H235.85V23.8605H239.024V18.3942H240.092V23.9025H241.376V26.0746H240.308ZM247.64 18.3942V24.8746H246.608V20.0983L243.211 24.8746H242.329V18.3942H243.361V23.1045L246.764 18.3942H247.64ZM251.162 25.0546C250.678 25.0546 250.272 24.9666 249.944 24.7906C249.62 24.6105 249.374 24.3745 249.206 24.0825C249.042 23.7905 248.96 23.4705 248.96 23.1225C248.96 22.7824 249.024 22.4884 249.152 22.2404C249.284 21.9884 249.468 21.7804 249.704 21.6164C249.94 21.4484 250.222 21.3163 250.55 21.2203C250.858 21.1363 251.202 21.0643 251.582 21.0043C251.966 20.9403 252.354 20.8823 252.746 20.8303C253.138 20.7783 253.504 20.7283 253.844 20.6803L253.46 20.9023C253.472 20.3263 253.356 19.9003 253.112 19.6242C252.872 19.3482 252.456 19.2102 251.864 19.2102C251.472 19.2102 251.128 19.3002 250.832 19.4802C250.54 19.6562 250.334 19.9443 250.214 20.3443L249.2 20.0383C249.356 19.4702 249.658 19.0242 250.106 18.7002C250.554 18.3762 251.144 18.2142 251.876 18.2142C252.464 18.2142 252.968 18.3202 253.388 18.5322C253.812 18.7402 254.116 19.0562 254.3 19.4802C254.392 19.6802 254.45 19.8983 254.474 20.1343C254.498 20.3663 254.51 20.6103 254.51 20.8663V24.8746H253.562V23.3205L253.784 23.4645C253.54 23.9885 253.198 24.3845 252.758 24.6526C252.322 24.9206 251.79 25.0546 251.162 25.0546ZM251.324 24.1605C251.708 24.1605 252.04 24.0925 252.32 23.9565C252.604 23.8165 252.832 23.6345 253.004 23.4105C253.176 23.1825 253.288 22.9344 253.34 22.6664C253.4 22.4664 253.432 22.2444 253.436 22.0004C253.444 21.7524 253.448 21.5624 253.448 21.4304L253.82 21.5924C253.472 21.6404 253.13 21.6864 252.794 21.7304C252.458 21.7744 252.14 21.8224 251.84 21.8744C251.54 21.9224 251.27 21.9804 251.03 22.0484C250.854 22.1044 250.688 22.1764 250.532 22.2644C250.38 22.3524 250.256 22.4664 250.16 22.6064C250.068 22.7424 250.022 22.9124 250.022 23.1165C250.022 23.2925 250.066 23.4605 250.154 23.6205C250.246 23.7805 250.386 23.9105 250.574 24.0105C250.766 24.1105 251.016 24.1605 251.324 24.1605ZM255.47 24.8746V23.9565C255.71 24.0005 255.892 23.9925 256.016 23.9325C256.144 23.8685 256.238 23.7585 256.298 23.6025C256.362 23.4425 256.414 23.2425 256.454 23.0025C256.523 22.6224 256.581 22.1984 256.629 21.7304C256.681 21.2623 256.727 20.7503 256.767 20.1943C256.811 19.6342 256.851 19.0342 256.887 18.3942H261.417V24.8746H260.349V19.4082H257.859C257.835 19.7763 257.805 20.1543 257.769 20.5423C257.737 20.9303 257.703 21.3083 257.667 21.6764C257.631 22.0404 257.591 22.3804 257.547 22.6964C257.507 23.0085 257.463 23.2785 257.415 23.5065C257.339 23.8985 257.233 24.2125 257.097 24.4485C256.961 24.6806 256.765 24.8306 256.508 24.8986C256.252 24.9706 255.906 24.9626 255.47 24.8746ZM263.102 24.8746L263.096 18.3942H264.17V20.7403H265.568C265.756 20.7403 265.948 20.7443 266.144 20.7523C266.34 20.7603 266.51 20.7783 266.654 20.8063C266.99 20.8703 267.284 20.9823 267.536 21.1423C267.788 21.3023 267.984 21.5204 268.124 21.7964C268.264 22.0684 268.334 22.4064 268.334 22.8104C268.334 23.3705 268.188 23.8145 267.896 24.1425C267.608 24.4665 267.23 24.6826 266.762 24.7906C266.602 24.8266 266.418 24.8506 266.21 24.8626C266.006 24.8706 265.812 24.8746 265.628 24.8746H263.102ZM264.17 23.9925H265.646C265.766 23.9925 265.9 23.9885 266.048 23.9805C266.196 23.9725 266.328 23.9525 266.444 23.9205C266.648 23.8605 266.83 23.7425 266.99 23.5665C267.154 23.3905 267.236 23.1385 267.236 22.8104C267.236 22.4784 267.156 22.2224 266.996 22.0424C266.84 21.8624 266.634 21.7444 266.378 21.6884C266.262 21.6604 266.14 21.6424 266.012 21.6344C265.884 21.6264 265.762 21.6224 265.646 21.6224H264.17V23.9925ZM269.472 24.8746V18.3942H270.54V21.1243H273.948V18.3942H275.016V24.8746H273.948V22.1384H270.54V24.8746H269.472ZM279.457 25.0546C278.813 25.0546 278.257 24.9086 277.789 24.6165C277.325 24.3245 276.967 23.9205 276.715 23.4045C276.463 22.8884 276.337 22.2964 276.337 21.6284C276.337 20.9483 276.465 20.3523 276.721 19.8403C276.977 19.3282 277.339 18.9302 277.807 18.6462C278.275 18.3582 278.825 18.2142 279.457 18.2142C280.105 18.2142 280.663 18.3602 281.131 18.6522C281.599 18.9402 281.957 19.3422 282.205 19.8583C282.457 20.3703 282.583 20.9603 282.583 21.6284C282.583 22.3044 282.457 22.9004 282.205 23.4165C281.953 23.9285 281.593 24.3305 281.125 24.6225C280.657 24.9106 280.101 25.0546 279.457 25.0546ZM279.457 24.0405C280.129 24.0405 280.629 23.8165 280.957 23.3685C281.285 22.9204 281.449 22.3404 281.449 21.6284C281.449 20.8963 281.283 20.3143 280.951 19.8823C280.619 19.4462 280.121 19.2282 279.457 19.2282C279.005 19.2282 278.633 19.3302 278.341 19.5342C278.049 19.7383 277.831 20.0203 277.687 20.3803C277.543 20.7403 277.471 21.1563 277.471 21.6284C277.471 22.3564 277.639 22.9404 277.975 23.3805C278.311 23.8205 278.805 24.0405 279.457 24.0405ZM286.634 25.0546C285.978 25.0546 285.42 24.9086 284.96 24.6165C284.504 24.3205 284.156 23.9145 283.916 23.3985C283.676 22.8824 283.552 22.2944 283.544 21.6344C283.552 20.9583 283.678 20.3643 283.922 19.8523C284.17 19.3362 284.524 18.9342 284.984 18.6462C285.444 18.3582 285.998 18.2142 286.646 18.2142C287.33 18.2142 287.918 18.3822 288.41 18.7182C288.907 19.0542 289.239 19.5142 289.407 20.0983L288.35 20.4163C288.214 20.0403 287.992 19.7483 287.684 19.5402C287.38 19.3322 287.03 19.2282 286.634 19.2282C286.19 19.2282 285.824 19.3322 285.536 19.5402C285.248 19.7443 285.034 20.0283 284.894 20.3923C284.754 20.7523 284.682 21.1663 284.678 21.6344C284.686 22.3544 284.852 22.9364 285.176 23.3805C285.504 23.8205 285.99 24.0405 286.634 24.0405C287.058 24.0405 287.41 23.9445 287.69 23.7525C287.97 23.5565 288.182 23.2745 288.326 22.9064L289.407 23.1885C289.183 23.7925 288.833 24.2545 288.356 24.5745C287.88 24.8946 287.306 25.0546 286.634 25.0546ZM292.23 24.8746V19.3662H289.974V18.3942H295.554V19.3662H293.298V24.8746H292.23ZM301.994 18.3942V24.8746H300.962V20.0983L297.566 24.8746H296.684V18.3942H297.716V23.1045L301.118 18.3942H301.994Z" fill="#088269"/>
</svg>
