<svg width="24" height="24" viewBox="0 0 24 24" fill="none" xmlns="http://www.w3.org/2000/svg">
<path d="M5 6.99966H18.9735C19.2566 6.99967 19.5366 7.05823 19.7954 7.17157C20.0542 7.2849 20.2861 7.4505 20.476 7.65767C20.666 7.86485 20.8099 8.10902 20.8984 8.37444C20.9869 8.63985 21.0181 8.92063 20.9899 9.19866L20.382 15.1987C20.332 15.6922 20.0979 16.1497 19.7253 16.4825C19.3527 16.8153 18.8681 16.9996 18.3655 16.9997H8.68843C8.21975 16.9998 7.76549 16.8397 7.40299 16.5465C7.0405 16.2533 6.79219 15.8452 6.70032 15.3917L5 6.99966ZM5 6.99966L4.19 3.757C4.13583 3.54075 4.01095 3.34881 3.83521 3.21166C3.65946 3.0745 3.44293 3.00001 3.22 3H2M8 21H10M16 21H18" stroke="#202020" stroke-width="1.5" stroke-linecap="round" stroke-linejoin="round"/>
</svg>
