<svg width="13" height="12" viewBox="0 0 13 12" fill="none" xmlns="http://www.w3.org/2000/svg">
<path d="M12.1034 2.33333H9.44159C9.44159 2.33333 9.41379 2.27879 9.41379 1.64583C9.41379 1.01288 8.91217 0.5 8.2931 0.5H4.7069C4.08783 0.5 3.58621 1.01288 3.58621 1.64583C3.58621 2.27879 3.614 2.33333 3.614 2.33333H0.896552C0.401655 2.33333 0 2.744 0 3.25V10.5833C0 11.0893 0.401655 11.5 0.896552 11.5H12.1034C12.5983 11.5 13 11.0893 13 10.5833V3.25C13 2.744 12.5983 2.33333 12.1034 2.33333ZM6.52017 9.65429C5.03459 9.65429 3.83052 8.42321 3.83052 6.90429C3.83052 5.38538 5.03459 4.15429 6.52017 4.15429C8.00531 4.15429 9.20983 5.38538 9.20983 6.90429C9.20983 8.42321 8.00531 9.65429 6.52017 9.65429Z" fill="#088269"/>
</svg>
