<svg width="17" height="18" viewBox="0 0 17 18" fill="none" xmlns="http://www.w3.org/2000/svg">
<path fill-rule="evenodd" clip-rule="evenodd" d="M11.6063 0.25C11.8051 0.25 11.9957 0.32889 12.1363 0.46934L14.9643 3.29834C15.1048 3.43897 15.1837 3.62959 15.1837 3.82834C15.1837 4.02709 15.1048 4.21771 14.9643 4.35834L5.77234 13.5503C5.67813 13.6448 5.56042 13.7125 5.43134 13.7463L1.60334 14.7463C1.47677 14.7794 1.34377 14.7787 1.21753 14.7444C1.0913 14.7101 0.976225 14.6434 0.883732 14.5509C0.79124 14.4585 0.724546 14.3434 0.69027 14.2171C0.655994 14.0909 0.655328 13.9579 0.688339 13.8313L1.68834 10.0013C1.72205 9.87273 1.78935 9.75538 1.88334 9.66134L11.0763 0.46934C11.217 0.32889 11.4076 0.25 11.6063 0.25ZM11.6063 2.06034L3.08734 10.5783L2.46234 12.9713L4.85534 12.3463L13.3733 3.82734L11.6063 2.06034Z" fill="#07745E"/>
<path d="M0.46967 16.4697C0.610322 16.329 0.801088 16.25 1 16.25H16C16.1989 16.25 16.3897 16.329 16.5303 16.4697C16.671 16.6103 16.75 16.8011 16.75 17C16.75 17.1989 16.671 17.3897 16.5303 17.5303C16.3897 17.671 16.1989 17.75 16 17.75H1C0.801088 17.75 0.610322 17.671 0.46967 17.5303C0.329018 17.3897 0.25 17.1989 0.25 17C0.25 16.8011 0.329018 16.6103 0.46967 16.4697Z" fill="#07745E"/>
</svg>
