<svg width="12" height="20" viewBox="0 0 12 20" fill="none" xmlns="http://www.w3.org/2000/svg">
<path fill-rule="evenodd" clip-rule="evenodd" d="M0.949294 5.02302C0.934294 7.77902 3.17429 10.059 5.90629 10.069C8.66629 10.078 10.9213 7.85002 10.9363 5.10002C10.9493 2.28502 8.73029 0.0070163 5.96629 1.63329e-05C3.20729 -0.00698376 0.965294 2.23702 0.949294 5.02302ZM8.20738 4.08967C8.32932 4.38774 8.39114 4.70697 8.38929 5.02902V5.03002C8.39339 5.35215 8.33363 5.67191 8.21346 5.97082C8.09328 6.26973 7.91508 6.54187 7.68915 6.77153C7.46321 7.00119 7.19401 7.1838 6.8971 7.30884C6.60019 7.43388 6.28146 7.49885 5.95929 7.50002C5.63713 7.50252 5.31766 7.44128 5.01926 7.31982C4.72086 7.19836 4.44943 7.01907 4.2206 6.79229C3.99177 6.5655 3.81006 6.29569 3.68592 5.9984C3.56179 5.7011 3.49768 5.38219 3.49729 5.06002C3.49171 4.73499 3.55095 4.4121 3.67155 4.11022C3.79215 3.80834 3.97169 3.53352 4.19968 3.3018C4.42768 3.07008 4.69956 2.88611 4.99945 2.76064C5.29933 2.63516 5.62122 2.5707 5.94629 2.57102C6.26834 2.57114 6.58719 2.63492 6.88451 2.75867C7.18183 2.88243 7.45176 3.06373 7.67878 3.29214C7.90581 3.52056 8.08545 3.7916 8.20738 4.08967Z" fill="#202020"/>
<path d="M0.880166 12.538C2.06217 13.469 3.44317 13.849 4.97417 14.009C4.93501 14.0514 4.90086 14.0889 4.86969 14.1232C4.81489 14.1835 4.76934 14.2335 4.72217 14.282C4.38596 14.6212 4.04985 14.9606 3.71369 15.3C2.927 16.0943 2.14007 16.8889 1.35117 17.682C1.11817 17.916 0.951166 18.176 0.935166 18.518C0.910166 19.023 1.22217 19.524 1.71017 19.764C2.17017 19.988 2.64217 19.917 3.03817 19.524C3.92217 18.647 4.79917 17.766 5.66217 16.871C5.87817 16.647 5.99617 16.598 6.24117 16.856C6.80472 17.4497 7.3831 18.029 7.96155 18.6085C8.24632 18.8937 8.53112 19.179 8.81417 19.466C9.03917 19.693 9.29117 19.855 9.61417 19.878C10.1252 19.913 10.6452 19.584 10.8782 19.084C11.0912 18.626 11.0102 18.139 10.6242 17.745C9.8986 17.0066 9.16934 16.2711 8.44033 15.5359C8.02997 15.122 7.61968 14.7082 7.21017 14.294C7.14551 14.2285 7.09357 14.1711 7.00776 14.0762C6.98873 14.0551 6.96804 14.0322 6.94517 14.007C7.78217 13.907 8.62917 13.755 9.40217 13.453C10.2192 13.134 10.9552 12.677 11.5662 12.044C11.9652 11.633 11.9692 11.113 11.6452 10.583C11.3622 10.118 10.8702 9.92298 10.3422 10.059C10.0712 10.129 9.83717 10.267 9.61717 10.437C7.40617 11.934 4.37917 11.892 2.17617 10.368C2.06717 10.293 1.95517 10.222 1.83717 10.167C1.22617 9.87598 0.638166 10.011 0.288166 10.517C-0.121834 11.107 -0.0698338 11.681 0.448166 12.181C0.554715 12.2843 0.673458 12.3768 0.792055 12.4691C0.821497 12.492 0.85093 12.5149 0.880166 12.538Z" fill="#202020"/>
</svg>
