<svg width="20" height="20" viewBox="0 0 20 20" fill="none" xmlns="http://www.w3.org/2000/svg">
<path d="M7.70581 7.7019C8.3153 7.09241 9.14195 6.75 10.0039 6.75C10.8659 6.75 11.6925 7.09241 12.302 7.7019C12.9115 8.3114 13.2539 9.13805 13.2539 10C13.2539 10.862 12.9115 11.6886 12.302 12.2981C11.6925 12.9076 10.8659 13.25 10.0039 13.25C9.14195 13.25 8.3153 12.9076 7.70581 12.2981C7.09632 11.6886 6.75391 10.862 6.75391 10C6.75391 9.13805 7.09632 8.3114 7.70581 7.7019Z" fill="#202020"/>
<path fill-rule="evenodd" clip-rule="evenodd" d="M15.2347 1.08585C11.7587 0.70055 8.25073 0.70055 4.7747 1.08585C2.8757 1.29785 1.3447 2.79285 1.1217 4.69885C0.709432 8.22384 0.709432 11.7849 1.1217 15.3098C1.3447 17.2148 2.8757 18.7099 4.7747 18.9228C8.25105 19.3083 11.7594 19.3083 15.2357 18.9228C17.1337 18.7099 18.6647 17.2148 18.8877 15.3088C19.2999 11.7842 19.2999 8.22351 18.8877 4.69885C18.6647 2.79285 17.1337 1.29785 15.2347 1.08585ZM14.2976 4.29674C14.4851 4.10921 14.7395 4.00385 15.0047 4.00385C15.2699 4.00385 15.5243 4.10921 15.7118 4.29674C15.8993 4.48428 16.0047 4.73863 16.0047 5.00385C16.0047 5.26907 15.8993 5.52342 15.7118 5.71096C15.5243 5.89849 15.2699 6.00385 15.0047 6.00385C14.7395 6.00385 14.4851 5.89849 14.2976 5.71096C14.1101 5.52342 14.0047 5.26907 14.0047 5.00385C14.0047 4.73863 14.1101 4.48428 14.2976 4.29674ZM6.64595 6.64509C5.75515 7.53589 5.2547 8.74407 5.2547 10.0038C5.2547 11.2636 5.75515 12.4718 6.64595 13.3626C7.53675 14.2534 8.74493 14.7538 10.0047 14.7538C11.2645 14.7538 12.4727 14.2534 13.3635 13.3626C14.2543 12.4718 14.7547 11.2636 14.7547 10.0038C14.7547 8.74407 14.2543 7.53589 13.3635 6.64509C12.4727 5.75429 11.2645 5.25385 10.0047 5.25385C8.74493 5.25385 7.53675 5.75429 6.64595 6.64509Z" fill="#202020"/>
</svg>
