<svg width="19" height="19" viewBox="0 0 19 19" fill="none" xmlns="http://www.w3.org/2000/svg">
<path d="M7.51244 0.0023751L8.08959 0H10.9112L11.4891 0.0023751L12.2128 0.0102921L12.5556 0.015834L12.8865 0.0245427L13.2056 0.0356265L13.5127 0.0482937L13.8088 0.0649194L14.0938 0.0847119L14.367 0.108463L14.6306 0.134589C16.0082 0.289762 16.9527 0.622276 17.6652 1.33481C18.3777 2.04734 18.7102 2.99104 18.8654 4.36939L18.8923 4.63303L18.9153 4.90695L18.9351 5.19197L18.9509 5.48727L18.9707 5.95279L18.9802 6.27739L18.9905 6.78724L18.9976 7.51165L19.0008 8.28751L19 10.9104L18.9976 11.4884L18.9897 12.212L18.9842 12.5548L18.9755 12.8857L18.9644 13.2048L18.9517 13.5119L18.9351 13.808L18.9153 14.093L18.8915 14.3662L18.8654 14.6298C18.7102 16.0074 18.3777 16.9519 17.6652 17.6644C16.9527 18.3769 16.009 18.7094 14.6306 18.8646L14.367 18.8915L14.093 18.9145L13.808 18.9343L13.5127 18.9501L13.0472 18.9699L12.7226 18.9794L12.2128 18.9897L11.4884 18.9968L10.7125 19L8.08959 18.9992L7.51165 18.9968L6.78803 18.9889L6.44523 18.9834L6.1143 18.9747L5.79524 18.9636L5.48806 18.9509L5.19197 18.9343L4.90695 18.9145L4.63382 18.8907L4.37018 18.8646C2.99262 18.7094 2.04813 18.3769 1.3356 17.6644C0.623068 16.9519 0.290554 16.0082 0.135381 14.6298L0.108463 14.3662L0.0855036 14.0923L0.0657111 13.8072L0.0498771 13.5119L0.0300846 13.0464L0.0205842 12.7218L0.0102921 12.212L0.0031668 11.4876L0 10.7117L0.0007917 8.0888L0.0031668 7.51085L0.0110838 6.78724L0.0166257 6.44443L0.0253344 6.1135L0.0364182 5.79445L0.0490854 5.48727L0.0657111 5.19117L0.0855036 4.90616L0.109255 4.63303L0.135381 4.36939C0.290554 2.99183 0.623068 2.04734 1.3356 1.33481C2.04813 0.622276 2.99183 0.289762 4.37018 0.134589L4.63382 0.107671L4.90775 0.0847119L5.19276 0.0649194L5.48806 0.0490854L5.95358 0.0292929L6.27818 0.0197925L6.78803 0.0095004L7.51244 0.0023751ZM5.37564 5.77862H3.20638C3.3093 10.7188 5.77941 13.6877 10.11 13.6877H10.3554V10.8613C11.9467 11.0197 13.1501 12.1835 13.6331 13.6877H15.8815C15.264 11.4393 13.641 10.1963 12.6276 9.72128C13.641 9.13542 15.066 7.71036 15.4065 5.77862H13.3639C12.9205 7.34618 11.6063 8.77124 10.3554 8.90583V5.77862H8.31285V11.2572C7.04613 10.9405 5.44689 9.4046 5.37564 5.77862Z" fill="#202020"/>
</svg>
